<svg width="30" height="30" viewBox="0 0 30 30" fill="none" xmlns="http://www.w3.org/2000/svg">
<path d="M15 30C6.71538 30 0 23.2846 0 15C0 6.71538 6.71538 0 15 0C23.2846 0 30 6.71538 30 15C30 23.2846 23.2846 30 15 30ZM22.4285 14.3515C22.4285 13.7146 21.9115 13.1977 21.2746 13.1977H16.6592V8.58231C16.6592 7.94538 16.1435 7.42846 15.5054 7.42846H14.3515C13.7135 7.42846 13.1977 7.94538 13.1977 8.58231V13.1977H8.58231C7.94423 13.1977 7.42846 13.7146 7.42846 14.3515V15.5054C7.42846 16.1435 7.94423 16.6592 8.58231 16.6592H13.1977V21.2746C13.1977 21.9127 13.7135 22.4285 14.3515 22.4285H15.5054C16.1435 22.4285 16.6592 21.9127 16.6592 21.2746V16.6592H21.2746C21.9115 16.6592 22.4285 16.1435 22.4285 15.5054V14.3515Z" fill="#FA6400"/>
</svg>
