<svg width="34" height="40" viewBox="0 0 34 40" fill="none" xmlns="http://www.w3.org/2000/svg">
<path d="M21.9423 25.9704C22.6916 24.7181 23.7933 24.0766 25.2542 24.0595C26.7152 24.0424 27.4525 23.2982 27.4764 21.8339C27.497 20.3763 28.1316 19.2746 29.3839 18.5288C30.6396 17.7795 30.9116 16.7719 30.1965 15.4957C29.4848 14.2229 29.4848 12.9501 30.1965 11.6739C30.9116 10.4011 30.6413 9.39525 29.3839 8.64595C28.1316 7.89495 27.4953 6.79496 27.4764 5.33058C27.4525 3.87305 26.7152 3.12889 25.2542 3.11178C23.7933 3.09125 22.6916 2.45316 21.9423 1.20091C21.193 -0.0547567 20.1854 -0.326761 18.9126 0.388319C17.6398 1.09998 16.3636 1.09998 15.0908 0.388319C13.8164 -0.32505 12.8087 -0.0547567 12.0595 1.20091C11.3119 2.45487 10.2085 3.09296 8.74921 3.11178C7.29168 3.12889 6.55094 3.87305 6.53041 5.33058C6.50646 6.79496 5.87178 7.89324 4.61954 8.64595C3.36387 9.39525 3.08845 10.3994 3.80695 11.6739C4.52203 12.9501 4.52203 14.2229 3.80695 15.4957C3.08845 16.7719 3.36216 17.7812 4.61954 18.5288C5.87178 19.2746 6.50817 20.3763 6.53041 21.8339C6.55094 23.2965 7.29168 24.0424 8.74921 24.0595C10.2102 24.0766 11.3119 24.7181 12.0612 25.9704C12.8105 27.2261 13.8181 27.4981 15.0908 26.7796C16.3636 26.0747 17.6398 26.0747 18.9126 26.7796C20.1854 27.4963 21.1947 27.2261 21.9423 25.9704ZM17.0051 21.579C12.5881 21.579 9.00924 18.0002 9.00924 13.5831C9.00924 9.16943 12.5881 5.59061 17.0051 5.59061C21.4188 5.59061 24.9976 9.16943 24.9976 13.5831C24.9976 18.0002 21.4188 21.579 17.0051 21.579Z" fill="#FA6400"/>
<path d="M8.62088 25.2314C7.08466 25.2314 6.87937 24.5163 6.87937 24.5163L0.879883 36.3083L5.69042 35.7677L8.35059 39.7708C8.35059 39.7708 13.8933 28.2063 13.8933 28.2833C11.021 28.2114 12.1638 25.3084 8.62088 25.2314Z" fill="#FA6400"/>
<path d="M27.0453 24.9782C22.6625 25.4367 23.5538 26.5247 22.5513 27.3698C21.3982 28.5998 19.9578 28.3586 19.9578 28.3586L26.7237 40L28.3882 35.689L33.1201 36.3066L27.0453 24.9782Z" fill="#FA6400"/>
<path d="M18.6748 11.8193L17.0017 8.4321L15.3269 11.8193L11.5822 12.3667L14.2885 15.0064L13.6504 18.7392L17.0017 16.9788L20.353 18.7392L19.7149 15.0064L22.4213 12.3667L18.6748 11.8193Z" fill="#FA6400"/>
</svg>
