<svg width="150" height="90" viewBox="0 0 150 90" fill="none" xmlns="http://www.w3.org/2000/svg">
<path d="M121.875 89.5625C113.906 89.5625 107.812 83.4688 107.812 75.5C107.812 67.5312 113.906 61.4375 121.875 61.4375C129.844 61.4375 135.938 67.5312 135.938 75.5C135.938 83.4688 129.844 89.5625 121.875 89.5625Z" fill="#FA6400"/>
<path d="M46.875 89.5625C38.9062 89.5625 32.8125 83.4688 32.8125 75.5C32.8125 67.5312 38.9062 61.4375 46.875 61.4375C54.8438 61.4375 60.9375 67.5312 60.9375 75.5C60.9375 83.4688 54.8438 89.5625 46.875 89.5625Z" fill="#FA6400"/>
<path d="M149.062 44.5625L130.312 21.125C129.375 19.7187 127.969 19.25 126.562 19.25H103.125V5.1875C103.125 2.375 101.25 0.5 98.4375 0.5H23.4375C20.625 0.5 18.75 2.375 18.75 5.1875V9.875H23.4375C26.25 9.875 28.125 11.75 28.125 14.5625C28.125 17.375 26.25 19.25 23.4375 19.25H18.75H14.0625C11.25 19.25 9.375 21.125 9.375 23.9375C9.375 26.75 11.25 28.625 14.0625 28.625H18.75H28.125C30.9375 28.625 32.8125 30.5 32.8125 33.3125C32.8125 36.125 30.9375 38 28.125 38H18.75H4.6875C1.875 38 0 39.875 0 42.6875C0 45.5 1.875 47.375 4.6875 47.375H18.75V75.5C18.75 78.3125 20.625 80.1875 23.4375 80.1875H23.9062C23.4375 78.7812 23.4375 76.9062 23.4375 75.5C23.4375 62.375 33.75 52.0625 46.875 52.0625C60 52.0625 70.3125 62.375 70.3125 75.5C70.3125 76.9062 70.3125 78.7812 69.8438 80.1875H98.4375H98.9062C98.4375 78.7812 98.4375 76.9062 98.4375 75.5C98.4375 62.375 108.75 52.0625 121.875 52.0625C135 52.0625 145.312 62.375 145.312 75.5C145.312 76.9062 145.312 78.7812 144.844 80.1875H145.312C148.125 80.1875 150 78.3125 150 75.5V47.375C150 46.4375 149.531 45.5 149.062 44.5625Z" fill="#FA6400"/>
</svg>
