<svg width="26" height="26" viewBox="0 0 26 26" fill="none" xmlns="http://www.w3.org/2000/svg">
<path fill-rule="evenodd" clip-rule="evenodd" d="M3 13C3 7.47715 7.47715 3 13 3C18.5229 3 23 7.47715 23 13C23 18.5229 18.5229 23 13 23C7.47715 23 3 18.5229 3 13ZM13 0.5C6.09644 0.5 0.5 6.09644 0.5 13C0.5 19.9035 6.09644 25.5 13 25.5C19.9035 25.5 25.5 19.9035 25.5 13C25.5 6.09644 19.9035 0.5 13 0.5ZM14.25 5.5C14.25 4.80965 13.6904 4.25 13 4.25C12.3096 4.25 11.75 4.80965 11.75 5.5V13C11.75 13.3315 11.8817 13.6495 12.1161 13.8839L15.8661 17.6339C16.3542 18.122 17.1457 18.122 17.6339 17.6339C18.122 17.1458 18.122 16.3542 17.6339 15.8661L14.25 12.4823V5.5Z" fill="black"/>
</svg>
