<svg width="30" height="20" viewBox="0 0 30 20" fill="none" xmlns="http://www.w3.org/2000/svg">
<path d="M29.0981 0.554749H19.7506L19.7075 0.597874L20.4758 1.36615C21.092 1.98239 21.092 2.9851 20.4758 3.60133L19.7075 4.36961L20.4758 5.13789C21.092 5.75412 21.092 6.75684 20.4758 7.37307L19.7075 8.14135L20.4758 8.90963C21.092 9.52586 21.092 10.5286 20.4758 11.1448L19.7075 11.9131L20.4758 12.6814C21.092 13.2976 21.092 14.3003 20.4758 14.9165L19.7075 15.6848L20.4758 16.4531C20.7744 16.7516 20.9387 17.1485 20.9387 17.5707C20.9387 17.9929 20.7743 18.3898 20.4758 18.6883L19.7188 19.4453H29.098C29.5961 19.4453 29.9999 19.0415 29.9999 18.5434V1.45674C30 0.958577 29.5962 0.554749 29.0981 0.554749Z" fill="black"/>
<path d="M18.8265 6.25557L18.0582 5.48729C17.7596 5.18882 17.5953 4.7919 17.5953 4.36973C17.5953 3.94751 17.7597 3.55059 18.0582 3.25212L18.8265 2.48384L18.0582 1.71555C17.7392 1.39651 17.5868 0.973875 17.5981 0.554871H0.901934C0.403828 0.554753 0 0.958581 0 1.45675V18.5433C0 19.0414 0.403828 19.4453 0.901934 19.4453H17.5956C17.5985 19.0274 17.7623 18.6348 18.0582 18.339L18.8265 17.5707L18.0582 16.8024C17.442 16.1862 17.442 15.1834 18.0582 14.5672L18.8265 13.7989L18.0582 13.0307C17.442 12.4144 17.442 11.4117 18.0582 10.7955L18.8265 10.0272L18.0582 9.25891C17.442 8.64268 17.442 7.63997 18.0582 7.02374L18.8265 6.25557ZM3.3068 8.55766V6.57579C3.3068 5.19409 4.21406 4.69159 5.40035 4.69159C6.57275 4.69159 7.49397 5.19409 7.49397 6.57579V8.55766C7.49397 9.93942 6.57275 10.4419 5.40035 10.4419C4.214 10.4418 3.3068 9.93936 3.3068 8.55766ZM6.22377 15.5361C5.74922 15.5361 5.44219 15.1453 5.44219 14.7964C5.44219 14.7126 5.47008 14.615 5.51197 14.5312L10.4108 4.46835C10.5224 4.2311 10.7457 4.11942 10.9969 4.11942C11.3877 4.11942 11.8204 4.41251 11.8204 4.85911C11.8204 4.94284 11.8064 5.04051 11.7646 5.1243L6.85172 15.1871C6.7541 15.3965 6.48891 15.5361 6.22377 15.5361ZM13.9 13.0517C13.9 14.4335 12.9788 14.9359 11.8064 14.9359C10.6201 14.9359 9.71285 14.4335 9.71285 13.0517V11.0699C9.71285 9.68811 10.62 9.18567 11.8064 9.18567C12.9788 9.18567 13.9 9.68811 13.9 11.0699V13.0517Z" fill="black"/>
</svg>
