<svg width="203" height="59" viewBox="0 0 203 59" fill="none" xmlns="http://www.w3.org/2000/svg">
<g filter="url(#filter0_d_299_2)">
<g clip-path="url(#clip0_299_2)">
<path d="M4 25.5C4 11.4167 15.4167 0 29.5 0H199V51H29.5C15.4167 51 4 39.5833 4 25.5V25.5Z" fill="#FA6400"/>
<path d="M42.1434 20L38.6034 15.35V20H36.0384V9.47H38.6034V14.09L42.1134 9.47H45.1284L41.0484 14.63L45.2784 20H42.1434ZM51.6424 11.54C52.6024 11.54 53.3724 11.86 53.9524 12.5C54.5324 13.13 54.8224 14 54.8224 15.11V20H52.2724V15.455C52.2724 14.895 52.1274 14.46 51.8374 14.15C51.5474 13.84 51.1574 13.685 50.6674 13.685C50.1774 13.685 49.7874 13.84 49.4974 14.15C49.2074 14.46 49.0624 14.895 49.0624 15.455V20H46.4974V8.9H49.0624V12.755C49.3224 12.385 49.6774 12.09 50.1274 11.87C50.5774 11.65 51.0824 11.54 51.6424 11.54ZM64.8698 11.63V20H62.3048V18.86C62.0448 19.23 61.6898 19.53 61.2398 19.76C60.7998 19.98 60.3098 20.09 59.7698 20.09C59.1298 20.09 58.5648 19.95 58.0748 19.67C57.5848 19.38 57.2048 18.965 56.9348 18.425C56.6648 17.885 56.5298 17.25 56.5298 16.52V11.63H59.0798V16.175C59.0798 16.735 59.2248 17.17 59.5148 17.48C59.8048 17.79 60.1948 17.945 60.6848 17.945C61.1848 17.945 61.5798 17.79 61.8698 17.48C62.1598 17.17 62.3048 16.735 62.3048 16.175V11.63H64.8698ZM75.2622 11.63L70.0122 23.975H67.2522L69.1722 19.715L65.7672 11.63H68.6322L70.5672 16.865L72.4872 11.63H75.2622ZM81.3498 10.91C81.0998 10.74 80.8448 10.555 80.5848 10.355C80.3248 10.145 80.0648 9.925 79.8048 9.695C79.5448 9.925 79.2848 10.145 79.0248 10.355C78.7648 10.555 78.5098 10.74 78.2598 10.91H77.0748V10.715C77.2448 10.525 77.4198 10.315 77.5998 10.085C77.7798 9.845 77.9598 9.605 78.1398 9.365C78.3298 9.115 78.4998 8.88 78.6498 8.66H80.9598C81.1198 8.88 81.2898 9.115 81.4698 9.365C81.6498 9.605 81.8298 9.845 82.0098 10.085C82.1998 10.315 82.3748 10.525 82.5348 10.715V10.91H81.3498ZM81.8898 9.29C82.0898 9.08 82.2648 8.865 82.4148 8.645C82.5748 8.415 82.7348 8.14 82.8948 7.82H84.6648V7.97C84.4448 8.26 84.1848 8.535 83.8848 8.795C83.5848 9.045 83.2898 9.275 82.9998 9.485H81.8898V9.29ZM79.8048 11.66C80.5648 11.66 81.2148 11.805 81.7548 12.095C82.3048 12.385 82.7298 12.805 83.0298 13.355C83.3298 13.905 83.4798 14.58 83.4798 15.38V16.46H78.1998C78.2198 17.09 78.4048 17.585 78.7548 17.945C79.1148 18.305 79.6098 18.485 80.2398 18.485C80.7698 18.485 81.2498 18.435 81.6798 18.335C82.1098 18.225 82.5548 18.06 83.0148 17.84V19.565C82.6148 19.765 82.1898 19.91 81.7398 20C81.2998 20.1 80.7648 20.15 80.1348 20.15C79.3148 20.15 78.5898 20 77.9598 19.7C77.3298 19.39 76.8348 18.925 76.4748 18.305C76.1148 17.685 75.9348 16.905 75.9348 15.965C75.9348 15.005 76.0948 14.21 76.4148 13.58C76.7448 12.94 77.1998 12.46 77.7798 12.14C78.3598 11.82 79.0348 11.66 79.8048 11.66ZM79.8198 13.25C79.3898 13.25 79.0298 13.39 78.7398 13.67C78.4598 13.95 78.2948 14.385 78.2448 14.975H81.3798C81.3798 14.645 81.3198 14.35 81.1998 14.09C81.0898 13.83 80.9198 13.625 80.6898 13.475C80.4598 13.325 80.1698 13.25 79.8198 13.25ZM90.1521 11.54C91.1321 11.54 91.9121 11.86 92.4921 12.5C93.0821 13.13 93.3771 14 93.3771 15.11V20H90.8271V15.455C90.8271 14.895 90.6821 14.46 90.3921 14.15C90.1021 13.84 89.7121 13.685 89.2221 13.685C88.7321 13.685 88.3421 13.84 88.0521 14.15C87.7621 14.46 87.6171 14.895 87.6171 15.455V20H85.0521V11.63H87.6171V12.74C87.8771 12.37 88.2271 12.08 88.6671 11.87C89.1071 11.65 89.6021 11.54 90.1521 11.54ZM109.018 11.54C110.058 11.54 110.883 11.855 111.493 12.485C112.113 13.115 112.423 13.99 112.423 15.11V20H109.873V15.455C109.873 14.915 109.728 14.5 109.438 14.21C109.158 13.91 108.768 13.76 108.268 13.76C107.768 13.76 107.373 13.91 107.083 14.21C106.803 14.5 106.663 14.915 106.663 15.455V20H104.113V15.455C104.113 14.915 103.968 14.5 103.678 14.21C103.398 13.91 103.008 13.76 102.508 13.76C102.008 13.76 101.613 13.91 101.323 14.21C101.043 14.5 100.903 14.915 100.903 15.455V20H98.3382V11.63H100.903V12.68C101.163 12.33 101.503 12.055 101.923 11.855C102.343 11.645 102.818 11.54 103.348 11.54C103.978 11.54 104.538 11.675 105.028 11.945C105.528 12.215 105.918 12.6 106.198 13.1C106.488 12.64 106.883 12.265 107.383 11.975C107.883 11.685 108.428 11.54 109.018 11.54ZM113.707 15.8C113.707 14.94 113.867 14.185 114.187 13.535C114.517 12.885 114.962 12.385 115.522 12.035C116.082 11.685 116.707 11.51 117.397 11.51C117.987 11.51 118.502 11.63 118.942 11.87C119.392 12.11 119.737 12.425 119.977 12.815V11.63H122.542V20H119.977V18.815C119.727 19.205 119.377 19.52 118.927 19.76C118.487 20 117.972 20.12 117.382 20.12C116.702 20.12 116.082 19.945 115.522 19.595C114.962 19.235 114.517 18.73 114.187 18.08C113.867 17.42 113.707 16.66 113.707 15.8ZM119.977 15.815C119.977 15.175 119.797 14.67 119.437 14.3C119.087 13.93 118.657 13.745 118.147 13.745C117.637 13.745 117.202 13.93 116.842 14.3C116.492 14.66 116.317 15.16 116.317 15.8C116.317 16.44 116.492 16.95 116.842 17.33C117.202 17.7 117.637 17.885 118.147 17.885C118.657 17.885 119.087 17.7 119.437 17.33C119.797 16.96 119.977 16.455 119.977 15.815ZM115.432 10.925C115.672 9.445 116.362 8.705 117.502 8.705C117.722 8.705 117.912 8.74 118.072 8.81C118.242 8.87 118.447 8.965 118.687 9.095C118.867 9.195 119.012 9.27 119.122 9.32C119.232 9.36 119.347 9.38 119.467 9.38C119.837 9.38 120.052 9.155 120.112 8.705H121.432C121.192 10.185 120.502 10.925 119.362 10.925C119.142 10.925 118.947 10.895 118.777 10.835C118.617 10.765 118.417 10.665 118.177 10.535C117.997 10.435 117.852 10.365 117.742 10.325C117.632 10.275 117.517 10.25 117.397 10.25C117.027 10.25 116.807 10.475 116.737 10.925H115.432ZM125.688 10.76C125.238 10.76 124.868 10.63 124.578 10.37C124.298 10.1 124.158 9.77 124.158 9.38C124.158 8.98 124.298 8.65 124.578 8.39C124.868 8.12 125.238 7.985 125.688 7.985C126.128 7.985 126.488 8.12 126.768 8.39C127.058 8.65 127.203 8.98 127.203 9.38C127.203 9.77 127.058 10.1 126.768 10.37C126.488 10.63 126.128 10.76 125.688 10.76ZM126.963 11.63V20H124.398V11.63H126.963ZM53.3343 34.54C54.2943 34.54 55.0643 34.86 55.6443 35.5C56.2243 36.13 56.5143 37 56.5143 38.11V43H53.9643V38.455C53.9643 37.895 53.8193 37.46 53.5293 37.15C53.2393 36.84 52.8493 36.685 52.3593 36.685C51.8693 36.685 51.4793 36.84 51.1893 37.15C50.8993 37.46 50.7543 37.895 50.7543 38.455V43H48.1893V31.9H50.7543V35.755C51.0143 35.385 51.3693 35.09 51.8193 34.87C52.2693 34.65 52.7743 34.54 53.3343 34.54ZM62.1067 43.12C61.2867 43.12 60.5467 42.945 59.8867 42.595C59.2367 42.245 58.7217 41.745 58.3417 41.095C57.9717 40.445 57.7867 39.685 57.7867 38.815C57.7867 37.955 57.9767 37.2 58.3567 36.55C58.7367 35.89 59.2567 35.385 59.9167 35.035C60.5767 34.685 61.3167 34.51 62.1367 34.51C62.9567 34.51 63.6967 34.685 64.3567 35.035C65.0167 35.385 65.5367 35.89 65.9167 36.55C66.2967 37.2 66.4867 37.955 66.4867 38.815C66.4867 39.675 66.2917 40.435 65.9017 41.095C65.5217 41.745 64.9967 42.245 64.3267 42.595C63.6667 42.945 62.9267 43.12 62.1067 43.12ZM62.1067 40.9C62.5967 40.9 63.0117 40.72 63.3517 40.36C63.7017 40 63.8767 39.485 63.8767 38.815C63.8767 38.145 63.7067 37.63 63.3667 37.27C63.0367 36.91 62.6267 36.73 62.1367 36.73C61.6367 36.73 61.2217 36.91 60.8917 37.27C60.5617 37.62 60.3967 38.135 60.3967 38.815C60.3967 39.485 60.5567 40 60.8767 40.36C61.2067 40.72 61.6167 40.9 62.1067 40.9ZM62.3467 32.77L60.0217 34V32.23L62.3467 31.045L64.6717 32.23V34L62.3467 32.77ZM78.5275 34.54C79.5675 34.54 80.3925 34.855 81.0025 35.485C81.6225 36.115 81.9325 36.99 81.9325 38.11V43H79.3825V38.455C79.3825 37.915 79.2375 37.5 78.9475 37.21C78.6675 36.91 78.2775 36.76 77.7775 36.76C77.2775 36.76 76.8825 36.91 76.5925 37.21C76.3125 37.5 76.1725 37.915 76.1725 38.455V43H73.6225V38.455C73.6225 37.915 73.4775 37.5 73.1875 37.21C72.9075 36.91 72.5175 36.76 72.0175 36.76C71.5175 36.76 71.1225 36.91 70.8325 37.21C70.5525 37.5 70.4125 37.915 70.4125 38.455V43H67.8475V34.63H70.4125V35.68C70.6725 35.33 71.0125 35.055 71.4325 34.855C71.8525 34.645 72.3275 34.54 72.8575 34.54C73.4875 34.54 74.0475 34.675 74.5375 34.945C75.0375 35.215 75.4275 35.6 75.7075 36.1C75.9975 35.64 76.3925 35.265 76.8925 34.975C77.3925 34.685 77.9375 34.54 78.5275 34.54ZM92.0051 34.54C92.9851 34.54 93.7651 34.86 94.3451 35.5C94.9351 36.13 95.2301 37 95.2301 38.11V43H92.6801V38.455C92.6801 37.895 92.5351 37.46 92.2451 37.15C91.9551 36.84 91.5651 36.685 91.0751 36.685C90.5851 36.685 90.1951 36.84 89.9051 37.15C89.6151 37.46 89.4701 37.895 89.4701 38.455V43H86.9051V34.63H89.4701V35.74C89.7301 35.37 90.0801 35.08 90.5201 34.87C90.9601 34.65 91.4551 34.54 92.0051 34.54ZM96.5025 38.8C96.5025 37.94 96.6625 37.185 96.9825 36.535C97.3125 35.885 97.7575 35.385 98.3175 35.035C98.8775 34.685 99.5025 34.51 100.193 34.51C100.783 34.51 101.298 34.63 101.738 34.87C102.188 35.11 102.533 35.425 102.773 35.815V34.63H105.338V43H102.773V41.815C102.523 42.205 102.173 42.52 101.723 42.76C101.283 43 100.768 43.12 100.178 43.12C99.4975 43.12 98.8775 42.945 98.3175 42.595C97.7575 42.235 97.3125 41.73 96.9825 41.08C96.6625 40.42 96.5025 39.66 96.5025 38.8ZM102.773 38.815C102.773 38.175 102.593 37.67 102.233 37.3C101.883 36.93 101.453 36.745 100.943 36.745C100.433 36.745 99.9975 36.93 99.6375 37.3C99.2875 37.66 99.1125 38.16 99.1125 38.8C99.1125 39.44 99.2875 39.95 99.6375 40.33C99.9975 40.7 100.433 40.885 100.943 40.885C101.453 40.885 101.883 40.7 102.233 40.33C102.593 39.96 102.773 39.455 102.773 38.815ZM115.743 34.63L110.493 46.975H107.733L109.653 42.715L106.248 34.63H109.113L111.048 39.865L112.968 34.63H115.743Z" fill="white"/>
<path d="M147.4 21.9058C146.968 21.9058 146.716 22.1152 146.716 22.5757V24.5576C146.716 25.0182 146.968 25.2275 147.4 25.2275C147.833 25.2275 148.098 25.0181 148.098 24.5576V22.5758C148.098 22.1152 147.833 21.9058 147.4 21.9058Z" fill="white"/>
<path d="M153.807 26.3999C153.374 26.3999 153.123 26.6093 153.123 27.0698V29.0517C153.123 29.5122 153.374 29.7216 153.807 29.7216C154.239 29.7216 154.504 29.5122 154.504 29.0517V27.0698C154.504 26.6093 154.239 26.3999 153.807 26.3999Z" fill="white"/>
<path d="M171.098 16.5547H161.751L161.707 16.5979L162.476 17.3662C163.092 17.9824 163.092 18.9851 162.476 19.6013L161.707 20.3696L162.476 21.1379C163.092 21.7541 163.092 22.7568 162.476 23.3731L161.707 24.1413L162.476 24.9096C163.092 25.5259 163.092 26.5286 162.476 27.1448L161.707 27.9131L162.476 28.6814C163.092 29.2976 163.092 30.3003 162.476 30.9165L161.707 31.6848L162.476 32.4531C162.774 32.7516 162.939 33.1485 162.939 33.5707C162.939 33.9929 162.774 34.3898 162.476 34.6883L161.719 35.4453H171.098C171.596 35.4453 172 35.0415 172 34.5434V17.4567C172 16.9586 171.596 16.5547 171.098 16.5547Z" fill="white"/>
<path d="M160.827 22.2556L160.058 21.4873C159.76 21.1888 159.595 20.7919 159.595 20.3697C159.595 19.9475 159.76 19.5506 160.058 19.2521L160.827 18.4838L160.058 17.7156C159.739 17.3965 159.587 16.9739 159.598 16.5549H142.902C142.404 16.5548 142 16.9586 142 17.4567V34.5433C142 35.0414 142.404 35.4453 142.902 35.4453H159.596C159.598 35.0274 159.762 34.6348 160.058 34.339L160.827 33.5707L160.058 32.8024C159.442 32.1862 159.442 31.1834 160.058 30.5672L160.827 29.7989L160.058 29.0307C159.442 28.4144 159.442 27.4117 160.058 26.7955L160.827 26.0272L160.058 25.2589C159.442 24.6427 159.442 23.64 160.058 23.0237L160.827 22.2556ZM145.307 24.5577V22.5758C145.307 21.1941 146.214 20.6916 147.4 20.6916C148.573 20.6916 149.494 21.1941 149.494 22.5758V24.5577C149.494 25.9394 148.573 26.4419 147.4 26.4419C146.214 26.4418 145.307 25.9394 145.307 24.5577ZM148.224 31.5361C147.749 31.5361 147.442 31.1453 147.442 30.7964C147.442 30.7126 147.47 30.615 147.512 30.5312L152.411 20.4683C152.522 20.2311 152.746 20.1194 152.997 20.1194C153.388 20.1194 153.82 20.4125 153.82 20.8591C153.82 20.9428 153.806 21.0405 153.765 21.1243L148.852 31.1871C148.754 31.3965 148.489 31.5361 148.224 31.5361ZM155.9 29.0517C155.9 30.4335 154.979 30.9359 153.806 30.9359C152.62 30.9359 151.713 30.4335 151.713 29.0517V27.0699C151.713 25.6881 152.62 25.1857 153.806 25.1857C154.979 25.1857 155.9 25.6881 155.9 27.0699V29.0517Z" fill="white"/>
</g>
<path d="M29.5 0.5H198.5V50.5H29.5C15.6929 50.5 4.5 39.3071 4.5 25.5C4.5 11.6929 15.6929 0.5 29.5 0.5Z" stroke="#ECECEC"/>
</g>
<defs>
<filter id="filter0_d_299_2" x="0" y="0" width="203" height="59" filterUnits="userSpaceOnUse" color-interpolation-filters="sRGB">
<feFlood flood-opacity="0" result="BackgroundImageFix"/>
<feColorMatrix in="SourceAlpha" type="matrix" values="0 0 0 0 0 0 0 0 0 0 0 0 0 0 0 0 0 0 127 0" result="hardAlpha"/>
<feOffset dy="4"/>
<feGaussianBlur stdDeviation="2"/>
<feComposite in2="hardAlpha" operator="out"/>
<feColorMatrix type="matrix" values="0 0 0 0 0 0 0 0 0 0 0 0 0 0 0 0 0 0 0.25 0"/>
<feBlend mode="normal" in2="BackgroundImageFix" result="effect1_dropShadow_299_2"/>
<feBlend mode="normal" in="SourceGraphic" in2="effect1_dropShadow_299_2" result="shape"/>
</filter>
<clipPath id="clip0_299_2">
<path d="M4 25.5C4 11.4167 15.4167 0 29.5 0H199V51H29.5C15.4167 51 4 39.5833 4 25.5V25.5Z" fill="white"/>
</clipPath>
</defs>
</svg>
