<svg width="184" height="257" viewBox="0 0 184 257" fill="none" xmlns="http://www.w3.org/2000/svg">
<g filter="url(#filter0_d_299_2)">
<g clip-path="url(#clip0_299_2)">
<path d="M4 40C4 17.9086 21.9086 0 44 0H180V249H44C21.9086 249 4 231.091 4 209V40Z" fill="#FA6400"/>
<path d="M27.9057 75L22.0057 67.25V75H17.7307V57.45H22.0057V65.15L27.8557 57.45H32.8807L26.0807 66.05L33.1307 75H27.9057ZM43.7373 60.9C45.3373 60.9 46.6206 61.4333 47.5873 62.5C48.554 63.55 49.0373 65 49.0373 66.85V75H44.7873V67.425C44.7873 66.4917 44.5456 65.7667 44.0623 65.25C43.579 64.7333 42.929 64.475 42.1123 64.475C41.2956 64.475 40.6456 64.7333 40.1623 65.25C39.679 65.7667 39.4373 66.4917 39.4373 67.425V75H35.1623V56.5H39.4373V62.925C39.8706 62.3083 40.4623 61.8167 41.2123 61.45C41.9623 61.0833 42.804 60.9 43.7373 60.9ZM65.783 61.05V75H61.508V73.1C61.0747 73.7167 60.483 74.2167 59.733 74.6C58.9997 74.9667 58.183 75.15 57.283 75.15C56.2163 75.15 55.2747 74.9167 54.458 74.45C53.6413 73.9667 53.008 73.275 52.558 72.375C52.108 71.475 51.883 70.4167 51.883 69.2V61.05H56.133V68.625C56.133 69.5583 56.3747 70.2833 56.858 70.8C57.3413 71.3167 57.9913 71.575 58.808 71.575C59.6413 71.575 60.2997 71.3167 60.783 70.8C61.2663 70.2833 61.508 69.5583 61.508 68.625V61.05H65.783ZM83.1037 61.05L74.3537 81.625H69.7537L72.9537 74.525L67.2787 61.05H72.0537L75.2787 69.775L78.4787 61.05H83.1037ZM93.2496 59.85C92.8329 59.5667 92.4079 59.2583 91.9746 58.925C91.5413 58.575 91.1079 58.2083 90.6746 57.825C90.2413 58.2083 89.8079 58.575 89.3746 58.925C88.9413 59.2583 88.5163 59.5667 88.0996 59.85H86.1246V59.525C86.4079 59.2083 86.6996 58.8583 86.9996 58.475C87.2996 58.075 87.5996 57.675 87.8996 57.275C88.2163 56.8583 88.4996 56.4667 88.7496 56.1H92.5996C92.8663 56.4667 93.1496 56.8583 93.4496 57.275C93.7496 57.675 94.0496 58.075 94.3496 58.475C94.6663 58.8583 94.9579 59.2083 95.2246 59.525V59.85H93.2496ZM94.1496 57.15C94.4829 56.8 94.7746 56.4417 95.0246 56.075C95.2913 55.6917 95.5579 55.2333 95.8246 54.7H98.7746V54.95C98.4079 55.4333 97.9746 55.8917 97.4746 56.325C96.9746 56.7417 96.4829 57.125 95.9996 57.475H94.1496V57.15ZM90.6746 61.1C91.9413 61.1 93.0246 61.3417 93.9246 61.825C94.8413 62.3083 95.5496 63.0083 96.0496 63.925C96.5496 64.8417 96.7996 65.9667 96.7996 67.3V69.1H87.9996C88.0329 70.15 88.3413 70.975 88.9246 71.575C89.5246 72.175 90.3496 72.475 91.3996 72.475C92.2829 72.475 93.0829 72.3917 93.7996 72.225C94.5163 72.0417 95.2579 71.7667 96.0246 71.4V74.275C95.3579 74.6083 94.6496 74.85 93.8996 75C93.1663 75.1667 92.2746 75.25 91.2246 75.25C89.8579 75.25 88.6496 75 87.5996 74.5C86.5496 73.9833 85.7246 73.2083 85.1246 72.175C84.5246 71.1417 84.2246 69.8417 84.2246 68.275C84.2246 66.675 84.4913 65.35 85.0246 64.3C85.5746 63.2333 86.3329 62.4333 87.2996 61.9C88.2663 61.3667 89.3913 61.1 90.6746 61.1ZM90.6996 63.75C89.9829 63.75 89.3829 63.9833 88.8996 64.45C88.4329 64.9167 88.1579 65.6417 88.0746 66.625H93.2996C93.2996 66.075 93.1996 65.5833 92.9996 65.15C92.8163 64.7167 92.5329 64.375 92.1496 64.125C91.7663 63.875 91.2829 63.75 90.6996 63.75ZM107.92 60.9C109.553 60.9 110.853 61.4333 111.82 62.5C112.803 63.55 113.295 65 113.295 66.85V75H109.045V67.425C109.045 66.4917 108.803 65.7667 108.32 65.25C107.837 64.7333 107.187 64.475 106.37 64.475C105.553 64.475 104.903 64.7333 104.42 65.25C103.937 65.7667 103.695 66.4917 103.695 67.425V75H99.4201V61.05H103.695V62.9C104.128 62.2833 104.712 61.8 105.445 61.45C106.178 61.0833 107.003 60.9 107.92 60.9ZM139.364 60.9C141.097 60.9 142.472 61.425 143.489 62.475C144.522 63.525 145.039 64.9833 145.039 66.85V75H140.789V67.425C140.789 66.525 140.547 65.8333 140.064 65.35C139.597 64.85 138.947 64.6 138.114 64.6C137.28 64.6 136.622 64.85 136.139 65.35C135.672 65.8333 135.439 66.525 135.439 67.425V75H131.189V67.425C131.189 66.525 130.947 65.8333 130.464 65.35C129.997 64.85 129.347 64.6 128.514 64.6C127.68 64.6 127.022 64.85 126.539 65.35C126.072 65.8333 125.839 66.525 125.839 67.425V75H121.564V61.05H125.839V62.8C126.272 62.2167 126.839 61.7583 127.539 61.425C128.239 61.075 129.03 60.9 129.914 60.9C130.964 60.9 131.897 61.125 132.714 61.575C133.547 62.025 134.197 62.6667 134.664 63.5C135.147 62.7333 135.805 62.1083 136.639 61.625C137.472 61.1417 138.38 60.9 139.364 60.9ZM147.179 68C147.179 66.5667 147.445 65.3083 147.979 64.225C148.529 63.1417 149.27 62.3083 150.204 61.725C151.137 61.1417 152.179 60.85 153.329 60.85C154.312 60.85 155.17 61.05 155.904 61.45C156.654 61.85 157.229 62.375 157.629 63.025V61.05H161.904V75H157.629V73.025C157.212 73.675 156.629 74.2 155.879 74.6C155.145 75 154.287 75.2 153.304 75.2C152.17 75.2 151.137 74.9083 150.204 74.325C149.27 73.725 148.529 72.8833 147.979 71.8C147.445 70.7 147.179 69.4333 147.179 68ZM157.629 68.025C157.629 66.9583 157.329 66.1167 156.729 65.5C156.145 64.8833 155.429 64.575 154.579 64.575C153.729 64.575 153.004 64.8833 152.404 65.5C151.82 66.1 151.529 66.9333 151.529 68C151.529 69.0667 151.82 69.9167 152.404 70.55C153.004 71.1667 153.729 71.475 154.579 71.475C155.429 71.475 156.145 71.1667 156.729 70.55C157.329 69.9333 157.629 69.0917 157.629 68.025ZM150.054 59.875C150.454 57.4083 151.604 56.175 153.504 56.175C153.87 56.175 154.187 56.2333 154.454 56.35C154.737 56.45 155.079 56.6083 155.479 56.825C155.779 56.9917 156.02 57.1167 156.204 57.2C156.387 57.2667 156.579 57.3 156.779 57.3C157.395 57.3 157.754 56.925 157.854 56.175H160.054C159.654 58.6417 158.504 59.875 156.604 59.875C156.237 59.875 155.912 59.825 155.629 59.725C155.362 59.6083 155.029 59.4417 154.629 59.225C154.329 59.0583 154.087 58.9417 153.904 58.875C153.72 58.7917 153.529 58.75 153.329 58.75C152.712 58.75 152.345 59.125 152.229 59.875H150.054ZM167.146 59.6C166.396 59.6 165.78 59.3833 165.296 58.95C164.83 58.5 164.596 57.95 164.596 57.3C164.596 56.6333 164.83 56.0833 165.296 55.65C165.78 55.2 166.396 54.975 167.146 54.975C167.88 54.975 168.48 55.2 168.946 55.65C169.43 56.0833 169.671 56.6333 169.671 57.3C169.671 57.95 169.43 58.5 168.946 58.95C168.48 59.3833 167.88 59.6 167.146 59.6ZM169.271 61.05V75H164.996V61.05H169.271ZM46.5571 98.9C48.1571 98.9 49.4405 99.4333 50.4071 100.5C51.3738 101.55 51.8571 103 51.8571 104.85V113H47.6071V105.425C47.6071 104.492 47.3655 103.767 46.8821 103.25C46.3988 102.733 45.7488 102.475 44.9321 102.475C44.1155 102.475 43.4655 102.733 42.9821 103.25C42.4988 103.767 42.2571 104.492 42.2571 105.425V113H37.9821V94.5H42.2571V100.925C42.6905 100.308 43.2821 99.8167 44.0321 99.45C44.7821 99.0833 45.6238 98.9 46.5571 98.9ZM61.1778 113.2C59.8112 113.2 58.5778 112.908 57.4778 112.325C56.3945 111.742 55.5362 110.908 54.9028 109.825C54.2862 108.742 53.9778 107.475 53.9778 106.025C53.9778 104.592 54.2945 103.333 54.9278 102.25C55.5612 101.15 56.4278 100.308 57.5278 99.725C58.6278 99.1417 59.8612 98.85 61.2278 98.85C62.5945 98.85 63.8278 99.1417 64.9278 99.725C66.0278 100.308 66.8945 101.15 67.5278 102.25C68.1612 103.333 68.4778 104.592 68.4778 106.025C68.4778 107.458 68.1528 108.725 67.5028 109.825C66.8695 110.908 65.9945 111.742 64.8778 112.325C63.7778 112.908 62.5445 113.2 61.1778 113.2ZM61.1778 109.5C61.9945 109.5 62.6862 109.2 63.2528 108.6C63.8362 108 64.1278 107.142 64.1278 106.025C64.1278 104.908 63.8445 104.05 63.2778 103.45C62.7278 102.85 62.0445 102.55 61.2278 102.55C60.3945 102.55 59.7028 102.85 59.1528 103.45C58.6028 104.033 58.3278 104.892 58.3278 106.025C58.3278 107.142 58.5945 108 59.1278 108.6C59.6778 109.2 60.3612 109.5 61.1778 109.5ZM61.5778 95.95L57.7028 98V95.05L61.5778 93.075L65.4528 95.05V98L61.5778 95.95ZM88.5458 98.9C90.2791 98.9 91.6541 99.425 92.6708 100.475C93.7041 101.525 94.2208 102.983 94.2208 104.85V113H89.9708V105.425C89.9708 104.525 89.7291 103.833 89.2458 103.35C88.7791 102.85 88.1291 102.6 87.2958 102.6C86.4625 102.6 85.8041 102.85 85.3208 103.35C84.8541 103.833 84.6208 104.525 84.6208 105.425V113H80.3708V105.425C80.3708 104.525 80.1291 103.833 79.6458 103.35C79.1791 102.85 78.5291 102.6 77.6958 102.6C76.8625 102.6 76.2041 102.85 75.7208 103.35C75.2541 103.833 75.0208 104.525 75.0208 105.425V113H70.7458V99.05H75.0208V100.8C75.4541 100.217 76.0208 99.7583 76.7208 99.425C77.4208 99.075 78.2125 98.9 79.0958 98.9C80.1458 98.9 81.0791 99.125 81.8958 99.575C82.7291 100.025 83.3791 100.667 83.8458 101.5C84.3291 100.733 84.9875 100.108 85.8208 99.625C86.6541 99.1417 87.5625 98.9 88.5458 98.9ZM111.008 98.9C112.642 98.9 113.942 99.4333 114.908 100.5C115.892 101.55 116.383 103 116.383 104.85V113H112.133V105.425C112.133 104.492 111.892 103.767 111.408 103.25C110.925 102.733 110.275 102.475 109.458 102.475C108.642 102.475 107.992 102.733 107.508 103.25C107.025 103.767 106.783 104.492 106.783 105.425V113H102.508V99.05H106.783V100.9C107.217 100.283 107.8 99.8 108.533 99.45C109.267 99.0833 110.092 98.9 111.008 98.9ZM118.504 106C118.504 104.567 118.771 103.308 119.304 102.225C119.854 101.142 120.596 100.308 121.529 99.725C122.463 99.1417 123.504 98.85 124.654 98.85C125.638 98.85 126.496 99.05 127.229 99.45C127.979 99.85 128.554 100.375 128.954 101.025V99.05H133.229V113H128.954V111.025C128.538 111.675 127.954 112.2 127.204 112.6C126.471 113 125.613 113.2 124.629 113.2C123.496 113.2 122.463 112.908 121.529 112.325C120.596 111.725 119.854 110.883 119.304 109.8C118.771 108.7 118.504 107.433 118.504 106ZM128.954 106.025C128.954 104.958 128.654 104.117 128.054 103.5C127.471 102.883 126.754 102.575 125.904 102.575C125.054 102.575 124.329 102.883 123.729 103.5C123.146 104.1 122.854 104.933 122.854 106C122.854 107.067 123.146 107.917 123.729 108.55C124.329 109.167 125.054 109.475 125.904 109.475C126.754 109.475 127.471 109.167 128.054 108.55C128.654 107.933 128.954 107.092 128.954 106.025ZM150.572 99.05L141.822 119.625H137.222L140.422 112.525L134.747 99.05H139.522L142.747 107.775L145.947 99.05H150.572Z" fill="white"/>
<path d="M62.2007 155.717C60.9027 155.717 60.1493 156.346 60.1493 157.727V163.673C60.1493 165.055 60.9029 165.683 62.2007 165.683C63.4988 165.683 64.2944 165.054 64.2944 163.673V157.727C64.2944 156.346 63.4988 155.717 62.2007 155.717Z" fill="white"/>
<path d="M81.4196 169.2C80.1216 169.2 79.368 169.828 79.368 171.209V177.155C79.368 178.537 80.122 179.165 81.4196 179.165C82.7172 179.165 83.5131 178.537 83.5131 177.155V171.209C83.513 169.828 82.7175 169.2 81.4196 169.2Z" fill="white"/>
<path d="M133.294 139.664H105.252L105.122 139.794L107.427 142.098C109.276 143.947 109.276 146.955 107.427 148.804L105.122 151.109L107.427 153.414C109.276 155.262 109.276 158.271 107.427 160.119L105.122 162.424L107.427 164.729C109.276 166.578 109.276 169.586 107.427 171.434L105.122 173.739L107.427 176.044C109.276 177.893 109.276 180.901 107.427 182.75L105.122 185.054L107.427 187.359C108.323 188.255 108.816 189.445 108.816 190.712C108.816 191.979 108.323 193.169 107.427 194.065L105.156 196.336H133.294C134.788 196.336 136 195.124 136 193.63V142.37C136 140.876 134.789 139.664 133.294 139.664Z" fill="white"/>
<path d="M102.48 156.767L100.175 154.462C99.2789 153.566 98.7859 152.376 98.7859 151.109C98.7859 149.842 99.2791 148.652 100.175 147.756L102.48 145.451L100.175 143.147C99.2176 142.19 98.7604 140.922 98.7943 139.665H48.7058C47.2115 139.664 46 140.876 46 142.37V193.63C46 195.124 47.2115 196.336 48.7058 196.336H98.7868C98.7954 195.082 99.287 193.904 100.175 193.017L102.48 190.712L100.175 188.407C98.326 186.558 98.326 183.55 100.175 181.702L102.48 179.397L100.175 177.092C98.326 175.243 98.326 172.235 100.175 170.386L102.48 168.082L100.175 165.777C98.326 163.928 98.326 160.92 100.175 159.071L102.48 156.767ZM55.9204 163.673V157.727C55.9204 153.582 58.6422 152.075 62.2011 152.075C65.7183 152.075 68.4819 153.582 68.4819 157.727V163.673C68.4819 167.818 65.7183 169.326 62.2011 169.326C58.642 169.325 55.9204 167.818 55.9204 163.673ZM64.6713 184.608C63.2477 184.608 62.3266 183.436 62.3266 182.389C62.3266 182.138 62.4102 181.845 62.5359 181.594L77.2323 151.405C77.5673 150.693 78.2372 150.358 78.9908 150.358C80.1631 150.358 81.4611 151.237 81.4611 152.577C81.4611 152.828 81.4192 153.122 81.2937 153.373L66.5552 183.561C66.2623 184.189 65.4667 184.608 64.6713 184.608ZM87.6999 177.155C87.6999 181.3 84.9364 182.808 81.4192 182.808C77.8604 182.808 75.1386 181.3 75.1386 177.155V171.21C75.1386 167.064 77.86 165.557 81.4192 165.557C84.9364 165.557 87.6999 167.064 87.6999 171.21V177.155Z" fill="white"/>
</g>
<path d="M44 0.5H179.5V248.5H44C22.1848 248.5 4.5 230.815 4.5 209V40C4.5 18.1848 22.1848 0.5 44 0.5Z" stroke="#ECECEC"/>
</g>
<defs>
<filter id="filter0_d_299_2" x="0" y="0" width="184" height="257" filterUnits="userSpaceOnUse" color-interpolation-filters="sRGB">
<feFlood flood-opacity="0" result="BackgroundImageFix"/>
<feColorMatrix in="SourceAlpha" type="matrix" values="0 0 0 0 0 0 0 0 0 0 0 0 0 0 0 0 0 0 127 0" result="hardAlpha"/>
<feOffset dy="4"/>
<feGaussianBlur stdDeviation="2"/>
<feComposite in2="hardAlpha" operator="out"/>
<feColorMatrix type="matrix" values="0 0 0 0 0 0 0 0 0 0 0 0 0 0 0 0 0 0 0.25 0"/>
<feBlend mode="normal" in2="BackgroundImageFix" result="effect1_dropShadow_299_2"/>
<feBlend mode="normal" in="SourceGraphic" in2="effect1_dropShadow_299_2" result="shape"/>
</filter>
<clipPath id="clip0_299_2">
<path d="M4 40C4 17.9086 21.9086 0 44 0H180V249H44C21.9086 249 4 231.091 4 209V40Z" fill="white"/>
</clipPath>
</defs>
</svg>
