<svg width="20" height="30" viewBox="0 0 20 30" fill="none" xmlns="http://www.w3.org/2000/svg">
<path d="M11.2344 29.25C13.9062 25.4883 20 16.3711 20 11.25C20 5.03906 15.5208 0 10 0C4.47917 0 0 5.03906 0 11.25C0 16.3711 6.09375 25.4883 8.76562 29.25C9.40625 30.1465 10.5938 30.1465 11.2344 29.25ZM10 7.5C10.8841 7.5 11.7319 7.89509 12.357 8.59835C12.9821 9.30161 13.3333 10.2554 13.3333 11.25C13.3333 12.2446 12.9821 13.1984 12.357 13.9017C11.7319 14.6049 10.8841 15 10 15C9.11594 15 8.2681 14.6049 7.64298 13.9017C7.01786 13.1984 6.66667 12.2446 6.66667 11.25C6.66667 10.2554 7.01786 9.30161 7.64298 8.59835C8.2681 7.89509 9.11594 7.5 10 7.5Z" fill="black"/>
</svg>
