<svg width="111" height="111" viewBox="0 0 111 111" fill="none" xmlns="http://www.w3.org/2000/svg">
<path d="M108.096 48.5474L100.615 39.8595C99.1853 38.2099 98.0302 35.1307 98.0302 32.9312V23.5835C98.0302 17.755 93.2449 12.9712 87.4146 12.9712H78.064C75.9189 12.9712 72.7837 11.8165 71.1336 10.3869L62.4431 2.90873C58.6478 -0.335461 52.4325 -0.335461 48.5822 2.90873L39.9465 10.4418C38.2964 11.8165 35.1612 12.9712 33.0161 12.9712H23.5005C17.6702 12.9712 12.8849 17.755 12.8849 23.5835V32.9862C12.8849 35.1307 11.7298 38.2099 10.3547 39.8595L2.92926 48.6023C-0.260927 52.3964 -0.260927 58.5548 2.92926 62.3489L10.3547 71.0917C11.7298 72.7413 12.8849 75.8205 12.8849 77.965V87.3676C12.8849 93.1962 17.6702 97.98 23.5005 97.98H33.0161C35.1612 97.98 38.2964 99.1347 39.9465 100.564L48.6372 108.042C52.4325 111.287 58.6478 111.287 62.4981 108.042L71.1886 100.564C72.8387 99.1347 75.9189 97.98 78.119 97.98H87.4696C93.2999 97.98 98.0852 93.1962 98.0852 87.3676V78.02C98.0852 75.8755 99.2403 72.7413 100.67 71.0917L108.151 62.4039C111.341 58.6098 111.341 52.3414 108.096 48.5474ZM81.2542 55.4756L74.8188 75.0507C73.9938 78.2949 70.5285 80.9342 67.0083 80.9342H56.8327C55.0726 80.9342 52.5975 80.3294 51.4974 79.2297L43.4117 72.9062C43.2467 76.4254 41.6516 77.91 37.7464 77.91H35.1062C31.036 77.91 29.3859 76.3154 29.3859 72.4664V46.1829C29.3859 42.3339 31.036 40.7393 35.1062 40.7393H37.8014C41.8716 40.7393 43.5217 42.3339 43.5217 46.1829V48.1624L54.1926 32.3264C55.2926 30.6218 58.0978 29.4121 60.4629 30.3469C63.0481 31.2266 64.6982 34.0859 64.1482 36.6153L62.8281 45.1932C62.7181 45.963 62.8831 46.6778 63.3781 47.2277C63.8181 47.7226 64.4782 48.0525 65.1932 48.0525H75.9189C78.009 48.0525 79.7691 48.8773 80.8142 50.3619C81.7492 51.7915 81.9142 53.6061 81.2542 55.4756Z" fill="#FA6400"/>
</svg>
