<svg width="280" height="68" viewBox="0 0 280 68" fill="none" xmlns="http://www.w3.org/2000/svg">
<g filter="url(#filter0_b_270_2)">
<path d="M139.37 30.2C140.59 30.46 141.57 31.07 142.31 32.03C143.05 32.97 143.42 34.05 143.42 35.27C143.42 37.03 142.8 38.43 141.56 39.47C140.34 40.49 138.63 41 136.43 41H126.62V19.94H136.1C138.24 19.94 139.91 20.43 141.11 21.41C142.33 22.39 142.94 23.72 142.94 25.4C142.94 26.64 142.61 27.67 141.95 28.49C141.31 29.31 140.45 29.88 139.37 30.2ZM131.75 28.46H135.11C135.95 28.46 136.59 28.28 137.03 27.92C137.49 27.54 137.72 26.99 137.72 26.27C137.72 25.55 137.49 25 137.03 24.62C136.59 24.24 135.95 24.05 135.11 24.05H131.75V28.46ZM135.53 36.86C136.39 36.86 137.05 36.67 137.51 36.29C137.99 35.89 138.23 35.32 138.23 34.58C138.23 33.84 137.98 33.26 137.48 32.84C137 32.42 136.33 32.21 135.47 32.21H131.75V36.86H135.53ZM151.435 19.94V32.54C151.435 33.8 151.745 34.77 152.365 35.45C152.985 36.13 153.895 36.47 155.095 36.47C156.295 36.47 157.215 36.13 157.855 35.45C158.495 34.77 158.815 33.8 158.815 32.54V19.94H163.945V32.51C163.945 34.39 163.545 35.98 162.745 37.28C161.945 38.58 160.865 39.56 159.505 40.22C158.165 40.88 156.665 41.21 155.005 41.21C153.345 41.21 151.855 40.89 150.535 40.25C149.235 39.59 148.205 38.61 147.445 37.31C146.685 35.99 146.305 34.39 146.305 32.51V19.94H151.435ZM191.398 19.94V41H186.268V28.37L181.558 41H177.418L172.678 28.34V41H167.548V19.94H173.607L179.518 34.52L185.368 19.94H191.398ZM208.797 19.94V24.05H200.217V28.49H206.637V32.48H200.217V41H195.087V19.94H208.797ZM221.453 41.21C219.473 41.21 217.653 40.75 215.993 39.83C214.353 38.91 213.043 37.63 212.063 35.99C211.103 34.33 210.623 32.47 210.623 30.41C210.623 28.35 211.103 26.5 212.063 24.86C213.043 23.22 214.353 21.94 215.993 21.02C217.653 20.1 219.473 19.64 221.453 19.64C223.433 19.64 225.243 20.1 226.883 21.02C228.543 21.94 229.843 23.22 230.783 24.86C231.743 26.5 232.223 28.35 232.223 30.41C232.223 32.47 231.743 34.33 230.783 35.99C229.823 37.63 228.523 38.91 226.883 39.83C225.243 40.75 223.433 41.21 221.453 41.21ZM221.453 36.53C223.133 36.53 224.473 35.97 225.473 34.85C226.493 33.73 227.003 32.25 227.003 30.41C227.003 28.55 226.493 27.07 225.473 25.97C224.473 24.85 223.133 24.29 221.453 24.29C219.753 24.29 218.393 24.84 217.373 25.94C216.373 27.04 215.873 28.53 215.873 30.41C215.873 32.27 216.373 33.76 217.373 34.88C218.393 35.98 219.753 36.53 221.453 36.53ZM245.037 41.21C243.057 41.21 241.237 40.75 239.577 39.83C237.937 38.91 236.627 37.63 235.647 35.99C234.687 34.33 234.207 32.47 234.207 30.41C234.207 28.35 234.687 26.5 235.647 24.86C236.627 23.22 237.937 21.94 239.577 21.02C241.237 20.1 243.057 19.64 245.037 19.64C247.017 19.64 248.827 20.1 250.467 21.02C252.127 21.94 253.427 23.22 254.367 24.86C255.327 26.5 255.807 28.35 255.807 30.41C255.807 32.47 255.327 34.33 254.367 35.99C253.407 37.63 252.107 38.91 250.467 39.83C248.827 40.75 247.017 41.21 245.037 41.21ZM245.037 36.53C246.717 36.53 248.057 35.97 249.057 34.85C250.077 33.73 250.587 32.25 250.587 30.41C250.587 28.55 250.077 27.07 249.057 25.97C248.057 24.85 246.717 24.29 245.037 24.29C243.337 24.29 241.977 24.84 240.957 25.94C239.957 27.04 239.457 28.53 239.457 30.41C239.457 32.27 239.957 33.76 240.957 34.88C241.977 35.98 243.337 36.53 245.037 36.53ZM266.551 19.94C268.771 19.94 270.711 20.38 272.371 21.26C274.031 22.14 275.311 23.38 276.211 24.98C277.131 26.56 277.591 28.39 277.591 30.47C277.591 32.53 277.131 34.36 276.211 35.96C275.311 37.56 274.021 38.8 272.341 39.68C270.681 40.56 268.751 41 266.551 41H258.661V19.94H266.551ZM266.221 36.56C268.161 36.56 269.671 36.03 270.751 34.97C271.831 33.91 272.371 32.41 272.371 30.47C272.371 28.53 271.831 27.02 270.751 25.94C269.671 24.86 268.161 24.32 266.221 24.32H263.791V36.56H266.221Z" fill="#FA6400"/>
</g>
<path d="M113.77 0H48.8812C47.2811 0 45.985 1.16929 45.985 2.61111V41.564C45.985 43.0058 47.2811 44.1716 48.8812 44.1716H113.77C115.37 44.1716 116.666 43.006 116.666 41.564V2.61111C116.666 1.16929 115.37 0 113.77 0Z" fill="url(#paint0_linear_270_2)"/>
<path d="M23.4201 52.8346C18.9301 52.8346 15.2872 56.1107 15.2872 60.1568C15.2872 64.2012 18.9301 67.4808 23.4201 67.4808C27.9084 67.4808 31.5469 64.2012 31.5469 60.1568C31.5469 56.1107 27.9084 52.8346 23.4201 52.8346Z" fill="url(#paint1_linear_270_2)"/>
<path d="M114.253 47.2405H44.9929C43.6606 47.2405 42.5778 46.2649 42.5778 45.0649V12.5872C42.5778 11.3853 41.4991 10.4117 40.1627 10.4117H18.1633C17.4469 10.4117 16.7688 10.6995 16.3117 11.1933L0.559414 28.2226C0.197338 28.6118 7.62939e-06 29.1056 7.62939e-06 29.6132V44.5506V52.3614C7.62939e-06 53.5615 1.08077 54.5352 2.41309 54.5352H14.5507C16.517 52.0254 19.7574 50.3778 23.4201 50.3778C27.081 50.3778 30.3194 52.0254 32.2877 54.5352H81.8269C83.7932 52.0254 87.0314 50.3778 90.6945 50.3778C94.3572 50.3778 97.5933 52.0254 99.5618 54.5352H114.254C115.586 54.5352 116.667 53.5615 116.667 52.3614V49.416C116.666 48.2143 115.586 47.2405 114.253 47.2405ZM8.81903 31.3429V29.8378C8.81903 29.3234 9.01409 28.8245 9.37457 28.4216L19.4293 17.2677C19.9044 16.7432 20.6126 16.4398 21.3614 16.4398H31.2128C32.5894 16.4398 33.7043 17.4426 33.7043 18.6804V31.343C33.7043 32.5809 32.5891 33.5838 31.2128 33.5838H11.3066C9.93397 33.5836 8.81903 32.5807 8.81903 31.3429Z" fill="url(#paint2_linear_270_2)"/>
<path d="M90.6945 52.8346C86.2044 52.8346 82.5657 56.1107 82.5657 60.1568C82.5657 64.2012 86.2047 67.4808 90.6945 67.4808C95.1825 67.4808 98.8231 64.2012 98.8231 60.1568C98.8231 56.1107 95.1823 52.8346 90.6945 52.8346Z" fill="url(#paint3_linear_270_2)"/>
<path d="M104.852 11.158V14.4397C104.852 14.8748 104.649 15.2918 104.287 15.5994C103.926 15.9071 103.437 16.0801 102.926 16.0806H88.6417C86.721 14.5857 84.3459 13.5807 81.7872 13.1802C80.1824 12.9279 78.554 12.8005 76.9221 12.7997C76.6014 12.7997 76.28 12.8087 75.9585 12.8186V11.158C75.9591 10.7229 76.1623 10.3059 76.5234 9.99825C76.8845 9.69064 77.3741 9.5176 77.8848 9.5171H102.926C103.437 9.5176 103.926 9.69064 104.287 9.99825C104.649 10.3059 104.852 10.7229 104.852 11.158ZM102.926 17.7215H90.3857C91.8574 19.3777 92.8072 21.3272 93.1448 23.3844C93.7843 23.7599 94.3073 24.262 94.669 24.8475C95.0306 25.4331 95.2201 26.0846 95.2211 26.7463V30.028C95.2228 30.653 95.0551 31.27 94.731 31.8307C95.223 32.7326 95.3489 33.7482 95.0889 34.7178C94.8289 35.6873 94.1977 36.5556 93.2948 37.186V39.0528C93.2912 39.9433 92.9441 40.8081 92.3071 41.5141H99.194C99.9276 41.5129 100.633 41.2745 101.169 40.8471C101.704 40.4196 102.029 39.835 102.077 39.2115L103.71 17.6524C103.452 17.6982 103.19 17.7213 102.926 17.7215ZM101 4.59449C101 4.48674 100.975 4.38004 100.927 4.28049C100.878 4.18093 100.807 4.09048 100.718 4.01429C100.628 3.9381 100.522 3.87767 100.405 3.83644C100.288 3.79522 100.163 3.77402 100.037 3.77405H96.1842C96.1054 3.77392 96.0268 3.78226 95.9505 3.79888L80.5404 7.08063C80.3321 7.12498 80.1472 7.22737 80.015 7.37152C79.8829 7.51568 79.8111 7.69332 79.8111 7.87623H101V4.59449ZM87.4253 32.1416C87.3477 32.0003 87.2244 31.8808 87.0699 31.7971C86.9154 31.7134 86.7361 31.6689 86.5529 31.6689H76.9217C76.7386 31.6689 76.5593 31.7134 76.4048 31.7971C76.2503 31.8808 76.127 32.0003 76.0494 32.1415C75.9717 32.2828 75.943 32.44 75.9664 32.5946C75.9899 32.7493 76.0647 32.8951 76.1819 33.0149L80.9976 37.9375C81.088 38.0298 81.2011 38.1041 81.3289 38.155C81.4568 38.206 81.5962 38.2324 81.7373 38.2324C81.8784 38.2324 82.0178 38.206 82.1457 38.155C82.2735 38.1041 82.3866 38.0298 82.4771 37.9375L87.2927 33.0149C87.4099 32.8951 87.4846 32.7493 87.5081 32.5947C87.5316 32.44 87.5029 32.2829 87.4253 32.1416ZM90.887 31.6689H89.2703C89.4374 32.0707 89.4795 32.5026 89.3924 32.9224C89.3054 33.3423 89.0922 33.7357 88.7736 34.0645L87.104 35.7711H90.887C91.5256 35.7711 92.138 35.555 92.5896 35.1703C93.0411 34.7857 93.2948 34.264 93.2948 33.72C93.2948 33.176 93.0411 32.6543 92.5896 32.2696C92.138 31.885 91.5256 31.6689 90.887 31.6689ZM74.702 34.0653C74.3831 33.7365 74.1697 33.3429 74.0825 32.9229C73.9953 32.503 74.0373 32.0709 74.2044 31.6689H62.9563C62.3178 31.6689 61.7053 31.885 61.2538 32.2696C60.8022 32.6543 60.5485 33.176 60.5485 33.72C60.5485 34.264 60.8022 34.7857 61.2538 35.1703C61.7053 35.555 62.3178 35.7711 62.9563 35.7711H76.3709L74.702 34.0653ZM85.4988 37.4119L83.957 38.9879C83.6859 39.2649 83.3467 39.4879 82.9632 39.6408C82.5798 39.7938 82.1616 39.8732 81.7382 39.8732C81.3148 39.8733 80.8966 39.7941 80.5131 39.6413C80.1296 39.4884 79.7903 39.2657 79.519 38.9887L77.9763 37.4119H62.4748V39.0528C62.4748 39.7056 62.7792 40.3316 63.3211 40.7932C63.8629 41.2548 64.5979 41.5141 65.3642 41.5141H88.4792C89.2455 41.5141 89.9804 41.2548 90.5223 40.7932C91.0641 40.3316 91.3686 39.7056 91.3686 39.0528V37.4119H85.4988ZM92.3317 26.7463H61.5117C61.2562 26.7463 61.0112 26.8327 60.8306 26.9866C60.65 27.1404 60.5485 27.3491 60.5485 27.5667V29.2076C60.5485 29.4252 60.65 29.6339 60.8306 29.7877C61.0112 29.9416 61.2562 30.028 61.5117 30.028H92.3317C92.5871 30.028 92.8321 29.9416 93.0127 29.7877C93.1933 29.6339 93.2948 29.4252 93.2948 29.2076V27.5667C93.2948 27.3491 93.1933 27.1404 93.0127 26.9866C92.8321 26.8327 92.5871 26.7463 92.3317 26.7463ZM91.3686 25.1054H62.4748C62.4748 22.2767 63.7939 19.5638 66.142 17.5636C68.4901 15.5634 71.6747 14.4397 74.9954 14.4397H78.8479C82.1686 14.4397 85.3533 15.5634 87.7014 17.5636C90.0494 19.5638 91.3686 22.2767 91.3686 25.1054ZM71.1429 21.4134C71.1429 21.17 71.0582 20.9321 70.8994 20.7297C70.7407 20.5273 70.5151 20.3696 70.2511 20.2765C69.9871 20.1833 69.6966 20.1589 69.4164 20.2064C69.1361 20.2539 68.8787 20.3711 68.6767 20.5432C68.4746 20.7153 68.337 20.9346 68.2813 21.1733C68.2256 21.4121 68.2542 21.6595 68.3635 21.8844C68.4729 22.1093 68.658 22.3015 68.8956 22.4367C69.1332 22.5719 69.4125 22.6441 69.6982 22.6441C70.0813 22.6437 70.4485 22.514 70.7193 22.2832C70.9902 22.0525 71.1425 21.7397 71.1429 21.4134ZM74.9954 18.9521C74.9954 18.7087 74.9107 18.4708 74.7519 18.2684C74.5932 18.066 74.3676 17.9083 74.1036 17.8151C73.8396 17.722 73.5491 17.6976 73.2689 17.7451C72.9886 17.7926 72.7312 17.9098 72.5292 18.0819C72.3271 18.254 72.1895 18.4733 72.1338 18.712C72.0781 18.9508 72.1067 19.1982 72.216 19.4231C72.3254 19.6479 72.5105 19.8401 72.7481 19.9754C72.9857 20.1106 73.265 20.1828 73.5507 20.1828C73.9338 20.1824 74.301 20.0526 74.5718 19.8219C74.8427 19.5912 74.995 19.2784 74.9954 18.9521ZM78.3664 21.4134C78.3664 21.17 78.2816 20.9321 78.1229 20.7297C77.9641 20.5273 77.7385 20.3696 77.4745 20.2765C77.2105 20.1833 76.9201 20.1589 76.6398 20.2064C76.3596 20.2539 76.1022 20.3711 75.9001 20.5432C75.6981 20.7153 75.5605 20.9346 75.5047 21.1733C75.449 21.4121 75.4776 21.6595 75.587 21.8844C75.6963 22.1093 75.8815 22.3015 76.119 22.4367C76.3566 22.5719 76.6359 22.6441 76.9217 22.6441C77.3047 22.6437 77.6719 22.514 77.9428 22.2832C78.2136 22.0525 78.3659 21.7397 78.3664 21.4134ZM81.7373 18.9521C81.7373 18.7087 81.6526 18.4708 81.4938 18.2684C81.3351 18.066 81.1095 17.9083 80.8455 17.8151C80.5815 17.722 80.291 17.6976 80.0108 17.7451C79.7305 17.7926 79.4731 17.9098 79.2711 18.0819C79.069 18.254 78.9314 18.4733 78.8757 18.712C78.8199 18.9508 78.8486 19.1982 78.9579 19.4231C79.0672 19.6479 79.2524 19.8401 79.49 19.9754C79.7276 20.1106 80.0069 20.1828 80.2926 20.1828C80.6756 20.1824 81.0429 20.0526 81.3137 19.8219C81.5845 19.5912 81.7369 19.2784 81.7373 18.9521ZM85.5898 21.4134C85.5898 21.17 85.5051 20.9321 85.3463 20.7297C85.1876 20.5273 84.962 20.3696 84.698 20.2765C84.434 20.1833 84.1435 20.1589 83.8633 20.2064C83.583 20.2539 83.3256 20.3711 83.1236 20.5432C82.9215 20.7153 82.7839 20.9346 82.7282 21.1733C82.6724 21.4121 82.7011 21.6595 82.8104 21.8844C82.9197 22.1093 83.1049 22.3015 83.3425 22.4367C83.5801 22.5719 83.8594 22.6441 84.1451 22.6441C84.5281 22.6437 84.8954 22.514 85.1662 22.2832C85.437 22.0525 85.5894 21.7397 85.5898 21.4134Z" fill="#FFFEFE"/>
<defs>
<filter id="filter0_b_270_2" x="122.62" y="15.64" width="158.971" height="29.57" filterUnits="userSpaceOnUse" color-interpolation-filters="sRGB">
<feFlood flood-opacity="0" result="BackgroundImageFix"/>
<feGaussianBlur in="BackgroundImageFix" stdDeviation="2"/>
<feComposite in2="SourceAlpha" operator="in" result="effect1_backgroundBlur_270_2"/>
<feBlend mode="normal" in="SourceGraphic" in2="effect1_backgroundBlur_270_2" result="shape"/>
</filter>
<linearGradient id="paint0_linear_270_2" x1="69.2473" y1="15.6458" x2="135.905" y2="66.9844" gradientUnits="userSpaceOnUse">
<stop stop-color="#FF6600"/>
<stop offset="1" stop-color="#9B8577" stop-opacity="0.52"/>
</linearGradient>
<linearGradient id="paint1_linear_270_2" x1="20.6385" y1="58.0224" x2="39.6424" y2="68.177" gradientUnits="userSpaceOnUse">
<stop stop-color="#FF6600"/>
<stop offset="1" stop-color="#9B8577" stop-opacity="0.52"/>
</linearGradient>
<linearGradient id="paint2_linear_270_2" x1="38.3966" y1="26.0405" x2="105.31" y2="111.198" gradientUnits="userSpaceOnUse">
<stop stop-color="#FF6600"/>
<stop offset="1" stop-color="#9B8577" stop-opacity="0.52"/>
</linearGradient>
<linearGradient id="paint3_linear_270_2" x1="87.9162" y1="58.0224" x2="106.919" y2="68.1747" gradientUnits="userSpaceOnUse">
<stop stop-color="#FF6600"/>
<stop offset="1" stop-color="#9B8577" stop-opacity="0.52"/>
</linearGradient>
</defs>
</svg>
