<svg width="132" height="86" viewBox="0 0 132 86" fill="none" xmlns="http://www.w3.org/2000/svg">
<path d="M56.625 14.875C48.6562 14.875 42.5625 23.3125 42.5625 33.625C42.5625 43.9375 48.6562 52.375 56.625 52.375C64.5938 52.375 70.6875 43.9375 70.6875 33.625C70.6875 23.3125 64.5938 14.875 56.625 14.875Z" fill="#FA6400"/>
<path d="M126.938 19.5625H112.875V5.5C112.875 2.6875 111 0.8125 108.188 0.8125H5.0625C2.25 0.8125 0.375 2.6875 0.375 5.5V61.75C0.375 64.5625 2.25 66.4375 5.0625 66.4375H19.125H108.188C111 66.4375 112.875 68.3125 112.875 71.125C112.875 73.9375 111 75.8125 108.188 75.8125H19.125V80.5C19.125 83.3125 21 85.1875 23.8125 85.1875H126.938C129.75 85.1875 131.625 83.3125 131.625 80.5V24.25C131.625 21.4375 129.75 19.5625 126.938 19.5625ZM103.5 38.7813C94.125 40.6563 87.0938 47.6875 85.2188 57.0625H28.0313C26.1563 47.6875 19.125 40.6563 9.75 38.7813V28.4687C19.125 26.5937 26.1563 19.5625 28.0313 10.1875H85.2188C87.0938 19.5625 94.125 26.5937 103.5 28.4687V38.7813Z" fill="#FA6400"/>
</svg>
