<svg width="30" height="30" viewBox="0 0 30 30" fill="none" xmlns="http://www.w3.org/2000/svg">
<path d="M24.1508 20.6463C23.4163 20.866 22.6952 21.2476 21.9697 21.9696L21.9688 21.9705C21.0244 22.922 20.6531 23.8673 20.489 24.8431C20.3275 25.8184 20.4074 26.817 20.4244 27.7726C20.4262 27.9322 20.4271 28.0918 20.4235 28.2502L28.2502 20.4226C28.0017 20.4284 27.7516 20.4248 27.4987 20.4185C26.3983 20.3857 25.2494 20.3184 24.1508 20.6463Z" fill="#FA6400"/>
<path d="M15.0004 0.000396729C6.71549 0.000396729 0 6.71542 0 14.9995C0 23.2844 6.71549 29.9999 15.0004 29.9999C16.2407 29.9999 17.4416 29.8394 18.595 29.5551C18.7429 29.3914 18.8371 29.1892 18.8981 28.8627C18.9599 28.5206 18.9653 28.0646 18.9501 27.5382C18.925 26.4844 18.821 25.149 19.2371 23.7338C19.5142 22.7913 20.0362 21.8226 20.9303 20.9317C20.9303 20.9317 20.9303 20.9312 20.9313 20.9307C22.0999 19.755 23.4047 19.2317 24.6056 19.0393C25.8082 18.8443 26.9158 18.9447 27.7956 18.9555C28.3813 18.9671 28.8584 18.9312 29.1678 18.8205C29.331 18.7626 29.4485 18.69 29.5552 18.5927C29.8395 17.4407 30.0001 16.2394 30.0001 14.9995C30 6.71542 23.2845 0.000396729 15.0004 0.000396729ZM11.84 18.8931L10.8571 19.0868C10.7907 19.0993 10.745 19.0827 10.7001 19.0316L8.01768 15.8972L7.97643 15.9053L8.66965 19.4307C8.67949 19.4805 8.6526 19.52 8.60332 19.5298L7.66969 19.7133C7.62035 19.7231 7.58092 19.6962 7.57102 19.6464L6.50021 14.1977C6.48949 14.1475 6.51639 14.1085 6.56572 14.0986L7.55672 13.9036C7.61502 13.8919 7.66881 13.9076 7.71275 13.9592L10.3898 17.103L10.431 17.0949L9.736 13.561C9.72609 13.5112 9.75299 13.4722 9.80326 13.4619L10.736 13.2785C10.7853 13.2687 10.8248 13.2946 10.8346 13.3448L11.9064 18.794C11.9162 18.8443 11.8893 18.8836 11.84 18.8931ZM16.6802 17.9411L13.0803 18.6496C13.0301 18.659 12.9915 18.6325 12.9817 18.5828L11.9091 13.1341C11.9001 13.0839 11.9261 13.0444 11.9763 13.0345L15.5762 12.3265C15.6255 12.317 15.665 12.3436 15.6749 12.3933L15.848 13.2767C15.8587 13.326 15.8319 13.3655 15.7825 13.3753L13.3628 13.8511C13.3297 13.8573 13.3162 13.8771 13.3225 13.9103L13.5422 15.025C13.5485 15.0578 13.5682 15.0712 13.6014 15.0649L15.6166 14.6685C15.6659 14.659 15.7054 14.686 15.7153 14.7348L15.8875 15.6101C15.8973 15.6599 15.8704 15.699 15.8211 15.7088L13.8059 16.1051C13.7736 16.1115 13.7593 16.1311 13.7655 16.1643L13.9951 17.3284C14.0014 17.3616 14.022 17.3746 14.0543 17.3678L16.4739 16.892C16.5233 16.8822 16.5628 16.9096 16.5726 16.9588L16.7466 17.8422C16.7565 17.8922 16.7296 17.9317 16.6802 17.9411ZM22.7096 16.6694C22.7106 16.7214 22.6765 16.7627 22.6182 16.7734L21.7922 16.9357C21.7348 16.9474 21.6945 16.9205 21.6684 16.8743L20.0075 13.5735L19.9914 13.5771L19.6954 17.2626C19.6891 17.3151 19.6622 17.355 19.6048 17.3662L18.7789 17.529C18.7295 17.5384 18.6901 17.5115 18.6632 17.4653L16.1386 12.3017C16.1207 12.2538 16.1305 12.2174 16.1887 12.2062L17.2533 11.9968C17.3115 11.9856 17.351 12.0116 17.3681 12.06L18.8711 15.4263L18.8882 15.4227L19.1527 11.7094C19.159 11.656 19.1859 11.617 19.2433 11.6053L19.9617 11.4641C20.011 11.4547 20.0505 11.4807 20.0774 11.5278L21.7607 14.8577L21.7778 14.8546L21.8603 11.1772C21.8576 11.1175 21.8854 11.0857 21.9437 11.0745L23.0001 10.8668C23.0575 10.8552 23.0808 10.8848 23.0817 10.9363L22.7096 16.6694Z" fill="#FA6400"/>
</svg>
