<svg width="30" height="30" viewBox="0 0 30 30" fill="none" xmlns="http://www.w3.org/2000/svg">
<path d="M5.40022 10.9058C4.96756 10.9058 4.71643 11.1152 4.71643 11.5757V13.5576C4.71643 14.0182 4.96762 14.2275 5.40022 14.2275C5.83293 14.2275 6.09813 14.0181 6.09813 13.5576V11.5758C6.09813 11.1152 5.83293 10.9058 5.40022 10.9058Z" fill="#FA6400"/>
<path d="M11.8065 15.3999C11.3739 15.3999 11.1227 15.6093 11.1227 16.0698V18.0517C11.1227 18.5122 11.374 18.7216 11.8065 18.7216C12.2391 18.7216 12.5044 18.5122 12.5044 18.0517V16.0698C12.5043 15.6093 12.2392 15.3999 11.8065 15.3999Z" fill="#FA6400"/>
<path d="M29.0981 5.55475H19.7506L19.7075 5.59787L20.4758 6.36615C21.092 6.98239 21.092 7.9851 20.4758 8.60133L19.7075 9.36961L20.4758 10.1379C21.092 10.7541 21.092 11.7568 20.4758 12.3731L19.7075 13.1413L20.4758 13.9096C21.092 14.5259 21.092 15.5286 20.4758 16.1448L19.7075 16.9131L20.4758 17.6814C21.092 18.2976 21.092 19.3003 20.4758 19.9165L19.7075 20.6848L20.4758 21.4531C20.7744 21.7516 20.9388 22.1485 20.9388 22.5707C20.9388 22.9929 20.7743 23.3898 20.4758 23.6883L19.7188 24.4453H29.098C29.5962 24.4453 30 24.0415 30 23.5434V6.45674C30 5.95858 29.5962 5.55475 29.0981 5.55475Z" fill="#FA6400"/>
<path d="M18.8265 11.2556L18.0582 10.4873C17.7596 10.1888 17.5953 9.7919 17.5953 9.36973C17.5953 8.94751 17.7597 8.55059 18.0582 8.25212L18.8265 7.48384L18.0582 6.71555C17.7392 6.39651 17.5868 5.97387 17.5981 5.55487H0.901934C0.403828 5.55475 0 5.95858 0 6.45675V23.5433C0 24.0414 0.403828 24.4453 0.901934 24.4453H17.5956C17.5985 24.0274 17.7623 23.6348 18.0582 23.339L18.8265 22.5707L18.0582 21.8024C17.442 21.1862 17.442 20.1834 18.0582 19.5672L18.8265 18.7989L18.0582 18.0307C17.442 17.4144 17.442 16.4117 18.0582 15.7955L18.8265 15.0272L18.0582 14.2589C17.442 13.6427 17.442 12.64 18.0582 12.0237L18.8265 11.2556ZM3.3068 13.5577V11.5758C3.3068 10.1941 4.21406 9.69159 5.40035 9.69159C6.57275 9.69159 7.49397 10.1941 7.49397 11.5758V13.5577C7.49397 14.9394 6.57275 15.4419 5.40035 15.4419C4.214 15.4418 3.3068 14.9394 3.3068 13.5577ZM6.22377 20.5361C5.74922 20.5361 5.44219 20.1453 5.44219 19.7964C5.44219 19.7126 5.47008 19.615 5.51197 19.5312L10.4108 9.46835C10.5224 9.2311 10.7457 9.11942 10.9969 9.11942C11.3877 9.11942 11.8204 9.41251 11.8204 9.85911C11.8204 9.94284 11.8064 10.0405 11.7646 10.1243L6.85172 20.1871C6.7541 20.3965 6.48891 20.5361 6.22377 20.5361ZM13.9 18.0517C13.9 19.4335 12.9788 19.9359 11.8064 19.9359C10.6201 19.9359 9.71285 19.4335 9.71285 18.0517V16.0699C9.71285 14.6881 10.62 14.1857 11.8064 14.1857C12.9788 14.1857 13.9 14.6881 13.9 16.0699V18.0517Z" fill="#FA6400"/>
</svg>
