<svg width="256" height="50" viewBox="0 0 256 50" fill="none" xmlns="http://www.w3.org/2000/svg">
<path d="M0 25C0 11.1929 11.1929 0 25 0H256V50H25C11.1929 50 0 38.8071 0 25Z" fill="#FA6400"/>
<path d="M29.0899 20.67C29.3299 20.58 29.5249 20.44 29.6749 20.25C29.8349 20.06 29.9499 19.825 30.0199 19.545C30.0999 19.255 30.1399 18.94 30.1399 18.6H32.3449L32.4499 18.765C32.3699 19.165 32.2599 19.545 32.1199 19.905C31.9799 20.265 31.7899 20.59 31.5499 20.88C31.3099 21.16 30.9899 21.4 30.5899 21.6C30.1899 21.79 29.6899 21.93 29.0899 22.02V26.22C29.0899 26.96 28.9249 27.63 28.5949 28.23C28.2749 28.82 27.7849 29.29 27.1249 29.64C26.4749 29.98 25.6499 30.15 24.6499 30.15C23.2299 30.15 22.1499 29.79 21.4099 29.07C20.6699 28.34 20.2999 27.38 20.2999 26.19V19.29H22.5649V26.025C22.5649 26.815 22.7449 27.385 23.1049 27.735C23.4649 28.075 23.9999 28.245 24.7099 28.245C25.2099 28.245 25.6149 28.165 25.9249 28.005C26.2349 27.835 26.4599 27.585 26.5999 27.255C26.7499 26.915 26.8249 26.5 26.8249 26.01V19.29H29.0899V20.67ZM41.4914 21.63V30H38.9264V28.86C38.6664 29.23 38.3114 29.53 37.8614 29.76C37.4214 29.98 36.9314 30.09 36.3914 30.09C35.7514 30.09 35.1864 29.95 34.6964 29.67C34.2064 29.38 33.8264 28.965 33.5564 28.425C33.2864 27.885 33.1514 27.25 33.1514 26.52V21.63H35.7014V26.175C35.7014 26.735 35.8464 27.17 36.1364 27.48C36.4264 27.79 36.8164 27.945 37.3064 27.945C37.8064 27.945 38.2014 27.79 38.4914 27.48C38.7814 27.17 38.9264 26.735 38.9264 26.175V21.63H41.4914ZM55.7675 21.135H54.8375V30H52.2725V28.8C52.0325 29.2 51.6875 29.52 51.2375 29.76C50.7975 30 50.2825 30.12 49.6925 30.12C49.0025 30.12 48.3775 29.945 47.8175 29.595C47.2575 29.235 46.8125 28.73 46.4825 28.08C46.1625 27.42 46.0025 26.66 46.0025 25.8C46.0025 24.94 46.1625 24.185 46.4825 23.535C46.8125 22.885 47.2575 22.385 47.8175 22.035C48.3775 21.685 49.0025 21.51 49.6925 21.51C50.2425 21.51 50.7425 21.625 51.1925 21.855C51.6525 22.085 52.0125 22.395 52.2725 22.785V21.135H51.2225V19.905H52.2725V18.9H54.8375V19.905H55.7675V21.135ZM50.4425 27.885C50.9525 27.885 51.3825 27.7 51.7325 27.33C52.0925 26.96 52.2725 26.455 52.2725 25.815C52.2725 25.175 52.0925 24.67 51.7325 24.3C51.3825 23.93 50.9525 23.745 50.4425 23.745C49.9325 23.745 49.4975 23.93 49.1375 24.3C48.7875 24.66 48.6125 25.16 48.6125 25.8C48.6125 26.44 48.7875 26.95 49.1375 27.33C49.4975 27.7 49.9325 27.885 50.4425 27.885ZM56.3883 25.8C56.3883 24.94 56.5483 24.185 56.8683 23.535C57.1983 22.885 57.6433 22.385 58.2033 22.035C58.7633 21.685 59.3883 21.51 60.0783 21.51C60.6683 21.51 61.1833 21.63 61.6233 21.87C62.0733 22.11 62.4183 22.425 62.6583 22.815V21.63H65.2233V30H62.6583V28.815C62.4083 29.205 62.0583 29.52 61.6083 29.76C61.1683 30 60.6533 30.12 60.0633 30.12C59.3833 30.12 58.7633 29.945 58.2033 29.595C57.6433 29.235 57.1983 28.73 56.8683 28.08C56.5483 27.42 56.3883 26.66 56.3883 25.8ZM62.6583 25.815C62.6583 25.175 62.4783 24.67 62.1183 24.3C61.7683 23.93 61.3383 23.745 60.8283 23.745C60.3183 23.745 59.8833 23.93 59.5233 24.3C59.1733 24.66 58.9983 25.16 58.9983 25.8C58.9983 26.44 59.1733 26.95 59.5233 27.33C59.8833 27.7 60.3183 27.885 60.8283 27.885C61.3383 27.885 61.7683 27.7 62.1183 27.33C62.4783 26.96 62.6583 26.455 62.6583 25.815ZM58.1133 20.925C58.3533 19.445 59.0433 18.705 60.1833 18.705C60.4033 18.705 60.5933 18.74 60.7533 18.81C60.9233 18.87 61.1283 18.965 61.3683 19.095C61.5483 19.195 61.6933 19.27 61.8033 19.32C61.9133 19.36 62.0283 19.38 62.1483 19.38C62.5183 19.38 62.7333 19.155 62.7933 18.705H64.1133C63.8733 20.185 63.1833 20.925 62.0433 20.925C61.8233 20.925 61.6283 20.895 61.4583 20.835C61.2983 20.765 61.0983 20.665 60.8583 20.535C60.6783 20.435 60.5333 20.365 60.4233 20.325C60.3133 20.275 60.1983 20.25 60.0783 20.25C59.7083 20.25 59.4883 20.475 59.4183 20.925H58.1133ZM68.3689 20.76C67.9189 20.76 67.5489 20.63 67.2589 20.37C66.9789 20.1 66.8389 19.77 66.8389 19.38C66.8389 18.98 66.9789 18.65 67.2589 18.39C67.5489 18.12 67.9189 17.985 68.3689 17.985C68.8089 17.985 69.1689 18.12 69.4489 18.39C69.7389 18.65 69.8839 18.98 69.8839 19.38C69.8839 19.77 69.7389 20.1 69.4489 20.37C69.1689 20.63 68.8089 20.76 68.3689 20.76ZM69.6439 21.63V30H67.0789V21.63H69.6439ZM77.8615 21.51C78.4515 21.51 78.9665 21.63 79.4065 21.87C79.8565 22.11 80.2015 22.425 80.4415 22.815V21.63H83.0065V29.985C83.0065 30.755 82.8515 31.45 82.5415 32.07C82.2415 32.7 81.7765 33.2 81.1465 33.57C80.5265 33.94 79.7515 34.125 78.8215 34.125C77.5815 34.125 76.5765 33.83 75.8065 33.24C75.0365 32.66 74.5965 31.87 74.4865 30.87H77.0215C77.1015 31.19 77.2915 31.44 77.5915 31.62C77.8915 31.81 78.2615 31.905 78.7015 31.905C79.2315 31.905 79.6515 31.75 79.9615 31.44C80.2815 31.14 80.4415 30.655 80.4415 29.985V28.8C80.1915 29.19 79.8465 29.51 79.4065 29.76C78.9665 30 78.4515 30.12 77.8615 30.12C77.1715 30.12 76.5465 29.945 75.9865 29.595C75.4265 29.235 74.9815 28.73 74.6515 28.08C74.3315 27.42 74.1715 26.66 74.1715 25.8C74.1715 24.94 74.3315 24.185 74.6515 23.535C74.9815 22.885 75.4265 22.385 75.9865 22.035C76.5465 21.685 77.1715 21.51 77.8615 21.51ZM80.4415 25.815C80.4415 25.175 80.2615 24.67 79.9015 24.3C79.5515 23.93 79.1215 23.745 78.6115 23.745C78.1015 23.745 77.6665 23.93 77.3065 24.3C76.9565 24.66 76.7815 25.16 76.7815 25.8C76.7815 26.44 76.9565 26.95 77.3065 27.33C77.6665 27.7 78.1015 27.885 78.6115 27.885C79.1215 27.885 79.5515 27.7 79.9015 27.33C80.2615 26.96 80.4415 26.455 80.4415 25.815ZM86.1521 20.76C85.7021 20.76 85.3321 20.63 85.0421 20.37C84.7621 20.1 84.6221 19.77 84.6221 19.38C84.6221 18.98 84.7621 18.65 85.0421 18.39C85.3321 18.12 85.7021 17.985 86.1521 17.985C86.5921 17.985 86.9521 18.12 87.2321 18.39C87.5221 18.65 87.6671 18.98 87.6671 19.38C87.6671 19.77 87.5221 20.1 87.2321 20.37C86.9521 20.63 86.5921 20.76 86.1521 20.76ZM87.4271 21.63V30H84.8621V21.63H87.4271ZM88.776 25.8C88.776 24.94 88.936 24.185 89.256 23.535C89.586 22.885 90.031 22.385 90.591 22.035C91.151 21.685 91.776 21.51 92.466 21.51C93.056 21.51 93.571 21.63 94.011 21.87C94.461 22.11 94.806 22.425 95.046 22.815V21.63H97.611V30H95.046V28.815C94.796 29.205 94.446 29.52 93.996 29.76C93.556 30 93.041 30.12 92.451 30.12C91.771 30.12 91.151 29.945 90.591 29.595C90.031 29.235 89.586 28.73 89.256 28.08C88.936 27.42 88.776 26.66 88.776 25.8ZM95.046 25.815C95.046 25.175 94.866 24.67 94.506 24.3C94.156 23.93 93.726 23.745 93.216 23.745C92.706 23.745 92.271 23.93 91.911 24.3C91.561 24.66 91.386 25.16 91.386 25.8C91.386 26.44 91.561 26.95 91.911 27.33C92.271 27.7 92.706 27.885 93.216 27.885C93.726 27.885 94.156 27.7 94.506 27.33C94.866 26.96 95.046 26.455 95.046 25.815ZM95.241 19.29V21.06L91.626 19.545V17.55L95.241 19.29ZM104.567 21.54C105.547 21.54 106.327 21.86 106.907 22.5C107.497 23.13 107.792 24 107.792 25.11V30H105.242V25.455C105.242 24.895 105.097 24.46 104.807 24.15C104.517 23.84 104.127 23.685 103.637 23.685C103.147 23.685 102.757 23.84 102.467 24.15C102.177 24.46 102.032 24.895 102.032 25.455V30H99.4666V21.63H102.032V22.74C102.292 22.37 102.642 22.08 103.082 21.87C103.522 21.65 104.017 21.54 104.567 21.54ZM114.719 21.54C115.679 21.54 116.449 21.86 117.029 22.5C117.609 23.13 117.899 24 117.899 25.11V30H115.349V25.455C115.349 24.895 115.204 24.46 114.914 24.15C114.624 23.84 114.234 23.685 113.744 23.685C113.254 23.685 112.864 23.84 112.574 24.15C112.284 24.46 112.139 24.895 112.139 25.455V30H109.574V18.9H112.139V22.755C112.399 22.385 112.754 22.09 113.204 21.87C113.654 21.65 114.159 21.54 114.719 21.54ZM125.425 23.025C125.725 22.565 126.1 22.205 126.55 21.945C127 21.675 127.5 21.54 128.05 21.54V24.255H127.345C126.705 24.255 126.225 24.395 125.905 24.675C125.585 24.945 125.425 25.425 125.425 26.115V30H122.86V21.63H125.425V23.025ZM130.566 20.76C130.116 20.76 129.746 20.63 129.456 20.37C129.176 20.1 129.036 19.77 129.036 19.38C129.036 18.98 129.176 18.65 129.456 18.39C129.746 18.12 130.116 17.985 130.566 17.985C131.006 17.985 131.366 18.12 131.646 18.39C131.936 18.65 132.081 18.98 132.081 19.38C132.081 19.77 131.936 20.1 131.646 20.37C131.366 20.63 131.006 20.76 130.566 20.76ZM131.841 21.63V30H129.276V21.63H131.841ZM141.59 25.68C141.59 25.92 141.575 26.17 141.545 26.43H135.74C135.78 26.95 135.945 27.35 136.235 27.63C136.535 27.9 136.9 28.035 137.33 28.035C137.97 28.035 138.415 27.765 138.665 27.225H141.395C141.255 27.775 141 28.27 140.63 28.71C140.27 29.15 139.815 29.495 139.265 29.745C138.715 29.995 138.1 30.12 137.42 30.12C136.6 30.12 135.87 29.945 135.23 29.595C134.59 29.245 134.09 28.745 133.73 28.095C133.37 27.445 133.19 26.685 133.19 25.815C133.19 24.945 133.365 24.185 133.715 23.535C134.075 22.885 134.575 22.385 135.215 22.035C135.855 21.685 136.59 21.51 137.42 21.51C138.23 21.51 138.95 21.68 139.58 22.02C140.21 22.36 140.7 22.845 141.05 23.475C141.41 24.105 141.59 24.84 141.59 25.68ZM138.965 25.005C138.965 24.565 138.815 24.215 138.515 23.955C138.215 23.695 137.84 23.565 137.39 23.565C136.96 23.565 136.595 23.69 136.295 23.94C136.005 24.19 135.825 24.545 135.755 25.005H138.965ZM137.39 19.77L135.065 21V19.23L137.39 18.045L139.715 19.23V21L137.39 19.77ZM148.043 21.54C149.023 21.54 149.803 21.86 150.383 22.5C150.973 23.13 151.268 24 151.268 25.11V30H148.718V25.455C148.718 24.895 148.573 24.46 148.283 24.15C147.993 23.84 147.603 23.685 147.113 23.685C146.623 23.685 146.233 23.84 145.943 24.15C145.653 24.46 145.508 24.895 145.508 25.455V30H142.943V21.63H145.508V22.74C145.768 22.37 146.118 22.08 146.558 21.87C146.998 21.65 147.493 21.54 148.043 21.54ZM156.231 21.51C156.821 21.51 157.336 21.63 157.776 21.87C158.226 22.11 158.571 22.425 158.811 22.815V21.63H161.376V29.985C161.376 30.755 161.221 31.45 160.911 32.07C160.611 32.7 160.146 33.2 159.516 33.57C158.896 33.94 158.121 34.125 157.191 34.125C155.951 34.125 154.946 33.83 154.176 33.24C153.406 32.66 152.966 31.87 152.856 30.87H155.391C155.471 31.19 155.661 31.44 155.961 31.62C156.261 31.81 156.631 31.905 157.071 31.905C157.601 31.905 158.021 31.75 158.331 31.44C158.651 31.14 158.811 30.655 158.811 29.985V28.8C158.561 29.19 158.216 29.51 157.776 29.76C157.336 30 156.821 30.12 156.231 30.12C155.541 30.12 154.916 29.945 154.356 29.595C153.796 29.235 153.351 28.73 153.021 28.08C152.701 27.42 152.541 26.66 152.541 25.8C152.541 24.94 152.701 24.185 153.021 23.535C153.351 22.885 153.796 22.385 154.356 22.035C154.916 21.685 155.541 21.51 156.231 21.51ZM158.811 25.815C158.811 25.175 158.631 24.67 158.271 24.3C157.921 23.93 157.491 23.745 156.981 23.745C156.471 23.745 156.036 23.93 155.676 24.3C155.326 24.66 155.151 25.16 155.151 25.8C155.151 26.44 155.326 26.95 155.676 27.33C156.036 27.7 156.471 27.885 156.981 27.885C157.491 27.885 157.921 27.7 158.271 27.33C158.631 26.96 158.811 26.455 158.811 25.815ZM165.9 25.815C165.9 24.945 166.075 24.185 166.425 23.535C166.785 22.885 167.28 22.385 167.91 22.035C168.55 21.685 169.28 21.51 170.1 21.51C171.15 21.51 172.025 21.785 172.725 22.335C173.435 22.885 173.9 23.66 174.12 24.66H171.39C171.16 24.02 170.715 23.7 170.055 23.7C169.585 23.7 169.21 23.885 168.93 24.255C168.65 24.615 168.51 25.135 168.51 25.815C168.51 26.495 168.65 27.02 168.93 27.39C169.21 27.75 169.585 27.93 170.055 27.93C170.715 27.93 171.16 27.61 171.39 26.97H174.12C173.9 27.95 173.435 28.72 172.725 29.28C172.015 29.84 171.14 30.12 170.1 30.12C169.28 30.12 168.55 29.945 167.91 29.595C167.28 29.245 166.785 28.745 166.425 28.095C166.075 27.445 165.9 26.685 165.9 25.815ZM180.637 21.54C181.597 21.54 182.367 21.86 182.947 22.5C183.527 23.13 183.817 24 183.817 25.11V30H181.267V25.455C181.267 24.895 181.122 24.46 180.832 24.15C180.542 23.84 180.152 23.685 179.662 23.685C179.172 23.685 178.782 23.84 178.492 24.15C178.202 24.46 178.057 24.895 178.057 25.455V30H175.492V18.9H178.057V22.755C178.317 22.385 178.672 22.09 179.122 21.87C179.572 21.65 180.077 21.54 180.637 21.54ZM189.409 30.12C188.589 30.12 187.849 29.945 187.189 29.595C186.539 29.245 186.024 28.745 185.644 28.095C185.274 27.445 185.089 26.685 185.089 25.815C185.089 24.955 185.279 24.2 185.659 23.55C186.039 22.89 186.559 22.385 187.219 22.035C187.879 21.685 188.619 21.51 189.439 21.51C190.259 21.51 190.999 21.685 191.659 22.035C192.319 22.385 192.839 22.89 193.219 23.55C193.599 24.2 193.789 24.955 193.789 25.815C193.789 26.675 193.594 27.435 193.204 28.095C192.824 28.745 192.299 29.245 191.629 29.595C190.969 29.945 190.229 30.12 189.409 30.12ZM189.409 27.9C189.899 27.9 190.314 27.72 190.654 27.36C191.004 27 191.179 26.485 191.179 25.815C191.179 25.145 191.009 24.63 190.669 24.27C190.339 23.91 189.929 23.73 189.439 23.73C188.939 23.73 188.524 23.91 188.194 24.27C187.864 24.62 187.699 25.135 187.699 25.815C187.699 26.485 187.859 27 188.179 27.36C188.509 27.72 188.919 27.9 189.409 27.9ZM197.819 25.83C197.819 25 197.989 24.26 198.329 23.61C198.679 22.96 199.144 22.455 199.724 22.095C200.314 21.725 200.954 21.54 201.644 21.54C202.174 21.54 202.649 21.635 203.069 21.825C203.489 22.005 203.829 22.26 204.089 22.59V21.63H206.654V33.99H204.089V28.95C203.799 29.3 203.444 29.58 203.024 29.79C202.614 30 202.144 30.105 201.614 30.105C200.934 30.105 200.304 29.925 199.724 29.565C199.144 29.205 198.679 28.7 198.329 28.05C197.989 27.4 197.819 26.66 197.819 25.83ZM204.089 25.815C204.089 25.365 203.999 24.99 203.819 24.69C203.649 24.38 203.424 24.15 203.144 24C202.864 23.84 202.569 23.76 202.259 23.76C201.959 23.76 201.669 23.84 201.389 24C201.109 24.15 200.879 24.38 200.699 24.69C200.519 25 200.429 25.38 200.429 25.83C200.429 26.28 200.519 26.66 200.699 26.97C200.879 27.27 201.109 27.5 201.389 27.66C201.669 27.81 201.959 27.885 202.259 27.885C202.559 27.885 202.849 27.81 203.129 27.66C203.419 27.5 203.649 27.265 203.819 26.955C203.999 26.645 204.089 26.265 204.089 25.815ZM216.775 21.63V30H214.21V28.86C213.95 29.23 213.595 29.53 213.145 29.76C212.705 29.98 212.215 30.09 211.675 30.09C211.035 30.09 210.47 29.95 209.98 29.67C209.49 29.38 209.11 28.965 208.84 28.425C208.57 27.885 208.435 27.25 208.435 26.52V21.63H210.985V26.175C210.985 26.735 211.13 27.17 211.42 27.48C211.71 27.79 212.1 27.945 212.59 27.945C213.09 27.945 213.485 27.79 213.775 27.48C214.065 27.17 214.21 26.735 214.21 26.175V21.63H216.775ZM218.107 25.8C218.107 24.94 218.267 24.185 218.587 23.535C218.917 22.885 219.362 22.385 219.922 22.035C220.482 21.685 221.107 21.51 221.797 21.51C222.387 21.51 222.902 21.63 223.342 21.87C223.792 22.11 224.137 22.425 224.377 22.815V21.63H226.942V30H224.377V28.815C224.127 29.205 223.777 29.52 223.327 29.76C222.887 30 222.372 30.12 221.782 30.12C221.102 30.12 220.482 29.945 219.922 29.595C219.362 29.235 218.917 28.73 218.587 28.08C218.267 27.42 218.107 26.66 218.107 25.8ZM224.377 25.815C224.377 25.175 224.197 24.67 223.837 24.3C223.487 23.93 223.057 23.745 222.547 23.745C222.037 23.745 221.602 23.93 221.242 24.3C220.892 24.66 220.717 25.16 220.717 25.8C220.717 26.44 220.892 26.95 221.242 27.33C221.602 27.7 222.037 27.885 222.547 27.885C223.057 27.885 223.487 27.7 223.837 27.33C224.197 26.96 224.377 26.455 224.377 25.815ZM224.572 19.545L220.957 21.06V19.29L224.572 17.55V19.545ZM233.898 21.54C234.878 21.54 235.658 21.86 236.238 22.5C236.828 23.13 237.123 24 237.123 25.11V30H234.573V25.455C234.573 24.895 234.428 24.46 234.138 24.15C233.848 23.84 233.458 23.685 232.968 23.685C232.478 23.685 232.088 23.84 231.798 24.15C231.508 24.46 231.363 24.895 231.363 25.455V30H228.798V21.63H231.363V22.74C231.623 22.37 231.973 22.08 232.413 21.87C232.853 21.65 233.348 21.54 233.898 21.54Z" fill="white"/>
</svg>
